<?xml version="1.0" encoding="UTF-8" standalone="no"?>
<!DOCTYPE svg PUBLIC "-//W3C//DTD SVG 1.1//EN" "http://www.w3.org/Graphics/SVG/1.1/DTD/svg11.dtd">
<svg width="1920.00" height="375.00" viewBox="0.00 0.00 1920.00 375.00" xmlns="http://www.w3.org/2000/svg" xmlns:xlink="http://www.w3.org/1999/xlink">
<g stroke-linecap="round" id="Layer_5">
<path d="M0.18,59.73 C18.08,68.98 62.88,92.17 89.78,106.11 C100.58,111.65 114.08,117.81 122.54,121.01 C131.01,124.20 148.46,129.51 157.45,131.64 C165.28,133.47 185.01,136.83 194.50,137.94 C204.06,138.90 223.69,139.82 233.68,139.91 C249.44,139.63 277.82,137.27 291.93,135.34 C306.21,133.08 335.50,127.21 350.50,123.60 C365.75,119.54 396.95,110.08 412.91,104.68 C429.21,98.69 461.87,87.02 478.21,81.84 C497.78,76.23 527.04,69.18 543.23,66.12 C559.41,63.32 591.66,59.46 607.72,58.41 C623.77,57.61 655.58,57.78 671.93,58.79 C688.01,60.04 720.14,64.25 736.18,67.23 C752.22,70.45 784.25,78.63 800.25,83.59 C808.24,86.25 824.23,91.83 832.22,94.74 C848.16,101.17 879.84,113.68 895.43,119.29 C910.84,124.42 941.18,133.23 956.09,136.92 C970.89,140.24 999.89,145.21 1014.10,146.85 C1028.22,148.25 1055.45,149.42 1074.00,148.67 C1082.01,148.17 1097.89,146.66 1105.76,145.64 C1113.57,144.46 1129.04,141.57 1136.71,139.87 C1144.32,138.00 1159.39,133.74 1166.85,131.35 C1174.26,128.79 1188.93,123.16 1196.19,120.09 C1210.53,113.33 1239.32,100.18 1254.05,94.72 C1261.46,92.15 1276.42,87.47 1283.97,85.36 C1291.57,83.41 1306.90,79.98 1314.64,78.49 C1322.42,77.16 1338.13,74.98 1346.05,74.12 C1354.02,73.41 1370.10,72.47 1378.21,72.23 C1393.29,72.14 1424.13,73.88 1439.90,75.72 C1455.76,77.83 1488.18,83.98 1504.74,88.02 C1521.44,92.47 1555.43,103.02 1572.65,108.99 C1589.54,114.57 1622.13,124.17 1637.83,128.19 C1656.18,132.38 1682.61,137.23 1696.61,139.03 C1703.50,139.79 1717.00,140.94 1723.60,141.31 C1732.95,141.67 1747.44,141.68 1757.76,140.90 C1768.09,140.10 1787.62,136.91 1796.82,134.52 C1806.00,132.11 1823.22,125.69 1831.26,121.68 C1839.29,117.66 1850.55,110.39 1861.07,102.72 C1883.33,86.51 1912.89,65.02 1920.18,59.73" fill="none" stroke="rgb(147, 148, 188)" stroke-width="15.00" stroke-opacity="1.00" stroke-linejoin="round"/>
<path d="M-17.82,157.73 C0.41,166.33 45.64,187.69 72.66,200.45 C80.77,204.27 98.92,212.49 105.70,215.18 C112.52,217.78 131.63,224.02 140.46,226.48 C149.38,228.71 167.51,232.43 176.72,233.94 C186.02,235.20 204.91,237.00 214.49,237.54 C224.17,237.85 243.81,237.73 250.71,237.44 C264.59,236.63 290.18,233.79 307.60,231.08 C322.31,228.37 352.31,221.60 367.60,217.54 C383.09,213.03 414.65,202.68 430.72,196.82 C438.83,193.77 455.05,187.87 463.15,185.02 C479.34,179.84 511.64,170.86 527.74,167.30 C543.83,164.00 575.92,159.14 591.92,157.59 C607.91,156.29 640.01,155.43 655.79,155.92 C671.82,156.67 703.87,159.90 719.89,162.38 C735.90,165.11 767.92,172.29 783.93,176.76 C791.93,179.11 807.92,184.25 815.92,186.92 C831.91,192.74 863.84,205.59 879.62,211.68 C895.23,217.29 925.94,227.06 941.05,231.23 C958.97,235.65 985.40,240.97 999.79,243.09 C1014.10,244.97 1043.12,247.12 1057.85,247.15 C1065.98,247.00 1082.10,246.17 1090.08,245.50 C1098.02,244.66 1113.74,242.46 1121.53,241.10 C1129.26,239.57 1144.59,236.00 1152.18,233.96 C1159.71,231.74 1174.64,226.79 1182.03,224.06 C1196.71,218.26 1225.59,204.35 1240.00,198.33 C1247.33,195.45 1262.11,190.15 1269.56,187.73 C1277.05,185.47 1292.16,181.41 1299.78,179.61 C1307.44,177.98 1322.88,175.16 1330.66,173.99 C1338.48,172.98 1354.25,171.41 1362.19,170.86 C1377.87,170.09 1408.26,170.73 1423.62,172.02 C1439.07,173.58 1470.58,178.63 1486.65,182.12 C1502.81,185.88 1535.79,195.47 1552.53,201.02 C1569.38,206.99 1602.35,217.63 1618.40,222.17 C1634.17,226.19 1664.91,232.78 1679.74,235.10 C1694.43,237.16 1725.59,239.64 1736.50,239.67 C1746.63,239.61 1766.39,238.50 1775.96,237.31 C1785.52,236.11 1804.05,232.50 1813.01,230.10 C1821.97,227.69 1839.29,221.66 1847.66,218.05 C1860.30,212.56 1893.79,193.39 1907.77,185.39 C1928.36,173.62 1952.57,159.79 1956.18,157.73" fill="none" stroke="rgb(147, 148, 188)" stroke-width="199.34" stroke-opacity="1.00" stroke-linejoin="round"/>
<path d="M-17.82,287.73 C0.41,296.33 45.64,317.69 72.66,330.45 C80.77,334.27 98.92,342.49 105.70,345.18 C112.52,347.78 131.63,354.02 140.46,356.48 C149.38,358.71 167.51,362.43 176.72,363.94 C186.02,365.20 204.91,367.00 214.49,367.54 C224.17,367.85 243.81,367.73 250.71,367.44 C264.59,366.63 290.18,363.79 307.60,361.08 C322.31,358.37 352.31,351.60 367.60,347.54 C383.09,343.03 414.65,332.68 430.72,326.82 C438.83,323.77 455.05,317.87 463.15,315.02 C479.34,309.84 511.64,300.86 527.74,297.30 C543.83,294.00 575.92,289.14 591.92,287.59 C607.91,286.29 640.01,285.43 655.79,285.92 C671.82,286.67 703.87,289.90 719.89,292.38 C735.90,295.11 767.92,302.29 783.93,306.76 C791.93,309.11 807.92,314.25 815.92,316.92 C831.91,322.74 863.84,335.59 879.62,341.68 C895.23,347.29 925.94,357.06 941.05,361.23 C958.97,365.65 985.40,370.97 999.79,373.09 C1014.10,374.97 1043.12,377.12 1057.85,377.15 C1065.98,377.00 1082.10,376.17 1090.08,375.50 C1098.02,374.66 1113.74,372.46 1121.53,371.10 C1129.26,369.57 1144.59,366.00 1152.18,363.96 C1159.71,361.74 1174.64,356.79 1182.03,354.06 C1196.71,348.26 1225.59,334.35 1240.00,328.33 C1247.33,325.45 1262.11,320.15 1269.56,317.73 C1277.05,315.47 1292.16,311.41 1299.78,309.61 C1307.44,307.98 1322.88,305.16 1330.66,303.99 C1338.48,302.98 1354.25,301.41 1362.19,300.86 C1377.87,300.09 1408.26,300.73 1423.62,302.02 C1439.07,303.58 1470.58,308.63 1486.65,312.12 C1502.81,315.88 1535.79,325.47 1552.53,331.02 C1569.38,336.99 1602.35,347.63 1618.40,352.17 C1634.17,356.19 1664.91,362.78 1679.74,365.10 C1694.43,367.16 1725.59,369.64 1736.50,369.67 C1746.63,369.61 1766.39,368.50 1775.96,367.31 C1785.52,366.11 1804.05,362.50 1813.01,360.10 C1821.97,357.69 1839.29,351.66 1847.66,348.05 C1860.30,342.56 1893.79,323.39 1907.77,315.39 C1928.36,303.62 1952.57,289.79 1956.18,287.73" fill="none" stroke="rgb(147, 148, 188)" stroke-width="199.34" stroke-opacity="1.00" stroke-linejoin="round"/>
</g>
</svg>
