<?xml version="1.0" encoding="UTF-8" standalone="no"?>
<!DOCTYPE svg PUBLIC "-//W3C//DTD SVG 1.1//EN" "http://www.w3.org/Graphics/SVG/1.1/DTD/svg11.dtd">
<svg width="121.00" height="127.00" viewBox="0.00 0.00 121.00 127.00" xmlns="http://www.w3.org/2000/svg" xmlns:xlink="http://www.w3.org/1999/xlink">
<g stroke-linecap="round" transform="translate(-35.00, -21.00)" id="Layer_2">
<path d="M37.88,35.50 C38.29,36.55 40.35,47.55 43.06,58.71 C45.13,67.11 49.59,85.37 49.76,88.13 C49.77,88.44 49.79,89.08 49.79,90.06" fill="none" stroke="rgb(255, 255, 255)" stroke-width="9.80" stroke-opacity="1.00" stroke-linejoin="round"/>
<path d="M42.12,50.50 C42.16,49.44 42.19,48.67 42.23,48.20 C42.50,44.93 43.97,41.06 45.52,38.83 C47.08,36.66 50.13,34.60 52.03,34.37 C54.18,34.17 58.51,35.70 60.28,37.45 C62.22,39.44 65.66,44.78 67.30,48.69 C69.70,54.53 73.92,74.40 74.56,78.71 C74.67,79.50 74.78,80.29 74.89,81.08 C74.89,81.14 74.92,81.31 74.92,81.25" fill="none" stroke="rgb(255, 255, 255)" stroke-width="9.80" stroke-opacity="1.00" stroke-linejoin="round"/>
<path d="M68.77,45.63 C68.62,45.43 68.52,45.18 68.47,44.86 C68.06,42.07 69.12,35.79 70.35,33.11 C71.73,30.21 75.64,26.18 77.76,25.51 C79.95,24.90 84.30,26.53 86.64,28.60 C88.75,30.54 92.25,35.82 93.73,39.11 C96.64,45.68 99.44,58.37 100.69,67.46 C100.99,69.62 101.70,75.83 101.74,76.10 C101.77,76.25 101.79,76.31 101.82,76.27" fill="none" stroke="rgb(255, 255, 255)" stroke-width="9.80" stroke-opacity="1.00" stroke-linejoin="round"/>
<path d="M118.22,52.64 C118.22,52.64 116.17,53.45 116.17,53.45 C121.31,54.15 138.20,52.79 143.73,50.74 C146.51,49.68 150.15,46.98 150.77,45.37 C151.04,44.56 150.97,42.75 150.58,41.91 C149.70,40.17 145.08,36.89 141.87,35.90 C138.46,34.89 131.41,34.69 128.00,35.66 C124.61,36.66 119.36,40.31 117.62,42.93 C116.01,45.44 114.61,51.16 114.75,54.45 C114.87,56.56 116.56,61.63 117.78,63.47 C119.08,65.40 122.09,68.27 124.06,69.28 C127.47,70.98 137.63,72.19 142.36,71.62 C144.85,71.29 149.69,69.71 151.49,67.91 C151.66,67.74 151.75,67.59 151.77,67.47" fill="none" stroke="rgb(255, 255, 255)" stroke-width="9.80" stroke-opacity="1.00" stroke-linejoin="round"/>
<path d="M60.81,104.69 C61.06,105.23 61.23,105.87 61.63,107.87 C66.54,131.93 69.38,142.93 69.88,144.26 C68.56,135.64 67.75,125.73 68.12,121.06 C68.41,117.75 70.60,110.96 72.60,108.52 C73.78,107.14 76.64,105.04 78.22,104.40 C79.50,103.91 82.63,103.56 83.96,103.78 C85.74,104.12 88.66,105.39 90.03,106.42 C92.53,108.37 96.04,113.95 97.04,117.02 C98.46,121.58 97.56,130.97 97.20,134.12 C97.16,134.62 97.12,135.54 97.07,136.89" fill="none" stroke="rgb(255, 255, 255)" stroke-width="9.80" stroke-opacity="1.00" stroke-linejoin="round"/>
<path d="M110.37,103.26 C110.55,102.63 110.71,102.15 110.83,101.81 C110.96,101.47 111.22,100.81 111.63,99.82 C111.39,106.55 112.28,116.48 113.65,120.44 C114.59,123.11 116.76,127.13 118.01,128.68 C119.45,130.41 121.95,132.57 123.65,133.44 C124.80,134.01 127.58,134.39 128.78,134.24 C131.53,133.79 135.60,130.76 137.18,128.25 C138.52,126.04 140.26,120.18 140.69,117.03 C141.37,111.68 140.73,104.89 140.13,99.66 C140.94,102.17 144.21,117.28 145.84,124.84 C147.24,130.95 148.74,135.00 149.02,134.85" fill="none" stroke="rgb(255, 255, 255)" stroke-width="9.80" stroke-opacity="1.00" stroke-linejoin="round"/>
</g>
</svg>
