<?xml version="1.0" encoding="UTF-8" standalone="no"?>
<!DOCTYPE svg PUBLIC "-//W3C//DTD SVG 1.1//EN" "http://www.w3.org/Graphics/SVG/1.1/DTD/svg11.dtd">
<svg width="424.00" height="120.00" viewBox="0.00 0.00 424.00 120.00" xmlns="http://www.w3.org/2000/svg" xmlns:xlink="http://www.w3.org/1999/xlink">
<g stroke-linecap="round" transform="translate(-234.00, -69.00)" id="Layer_4">
<path d="M238.93,74.43 C238.93,74.43 238.07,72.79 238.07,72.79 C238.27,76.14 244.15,114.50 246.48,131.98 C247.45,140.11 248.01,145.86 248.01,145.89 C248.11,146.27 248.00,145.12 248.01,144.73 C248.01,144.43 248.02,143.99 248.05,143.39" fill="none" stroke="rgb(87, 41, 160)" stroke-width="11.00" stroke-opacity="1.00" stroke-linejoin="round"/>
<path d="M246.36,110.79 C246.24,110.58 246.18,110.39 246.17,110.25 C246.12,108.68 248.70,104.12 250.92,102.18 C252.85,100.54 257.50,97.90 258.93,97.74 C260.82,97.57 263.81,98.54 265.46,99.78 C266.39,100.51 269.22,104.34 270.03,106.55 C271.61,111.00 273.42,122.55 273.44,130.99 C273.45,134.46 273.32,137.28 273.27,138.10" fill="none" stroke="rgb(87, 41, 160)" stroke-width="11.00" stroke-opacity="1.00" stroke-linejoin="round"/>
<path d="M296.77,102.98 C296.59,102.22 296.20,101.59 295.59,101.47 C294.03,101.21 289.34,103.66 287.37,105.48 C285.94,106.85 283.90,110.74 283.57,112.73 C283.23,115.04 284.04,120.25 284.93,121.96 C285.93,123.80 288.23,126.51 289.81,127.53 C291.55,128.62 294.85,129.55 296.79,129.55 C298.25,129.51 301.16,128.71 302.31,128.04 C303.62,127.24 305.79,125.03 306.60,123.67 C308.04,121.17 308.46,115.24 307.30,112.00 C306.44,109.72 302.96,105.07 300.43,103.13 C297.72,101.13 293.33,99.91 292.47,100.56" fill="none" stroke="rgb(87, 41, 160)" stroke-width="11.00" stroke-opacity="1.00" stroke-linejoin="round"/>
<path d="M316.13,109.29 C317.36,110.72 321.69,111.42 324.47,111.30 C326.98,111.16 332.73,110.01 335.61,109.08 C338.86,107.98 344.24,104.95 344.73,103.12 C344.98,102.00 344.28,100.16 343.38,99.46 C341.52,98.14 335.41,97.55 332.02,98.46 C328.51,99.46 323.16,103.42 321.26,106.27 C319.61,108.87 318.55,115.15 319.29,117.93 C320.07,120.65 323.63,125.51 325.80,126.83 C327.85,128.01 332.78,129.35 336.42,129.19 C343.81,128.78 349.86,126.27 350.67,125.78 C350.84,125.67 350.95,125.56 350.99,125.44" fill="none" stroke="rgb(87, 41, 160)" stroke-width="11.00" stroke-opacity="1.00" stroke-linejoin="round"/>
<path d="M355.20,85.21 C355.36,88.40 357.40,106.29 358.33,114.19 C358.87,118.26 359.70,124.24 359.99,126.15" fill="none" stroke="rgb(87, 41, 160)" stroke-width="11.00" stroke-opacity="1.00" stroke-linejoin="round"/>
<path d="M377.20,98.95 C376.27,99.19 374.87,99.72 372.59,100.75 C368.61,102.54 363.24,105.47 361.99,106.81 C361.87,107.96 364.30,109.88 368.42,112.05 C369.53,112.63 378.12,116.78 381.17,118.25 C381.75,118.52 382.33,118.79 382.91,119.07" fill="none" stroke="rgb(87, 41, 160)" stroke-width="11.00" stroke-opacity="1.00" stroke-linejoin="round"/>
<path d="M393.35,99.77 C393.76,102.69 396.54,107.87 397.65,110.36 C398.80,112.96 401.52,120.52 402.01,122.78 C402.25,123.95 402.63,130.06 401.71,132.74 C401.16,134.25 399.08,136.71 397.64,137.65 C396.07,138.64 390.36,139.34 388.39,139.16 C385.29,138.82 383.13,137.63 382.25,136.59 C382.25,136.59 382.84,134.01 382.84,134.01" fill="none" stroke="rgb(87, 41, 160)" stroke-width="11.00" stroke-opacity="1.00" stroke-linejoin="round"/>
<path d="M391.16,87.49 C391.24,86.69 391.25,86.14 391.20,85.83 C391.15,85.53 390.97,85.04 390.66,84.37" fill="none" stroke="rgb(87, 41, 160)" stroke-width="11.00" stroke-opacity="1.00" stroke-linejoin="round"/>
<path d="M412.47,104.03 C412.93,104.19 413.33,104.30 413.68,104.34 C417.42,104.78 426.71,102.77 429.02,101.51 C430.24,100.82 431.75,98.98 431.85,98.08 C431.91,97.25 430.95,95.64 430.13,95.00 C428.50,93.81 423.42,92.96 421.15,93.51 C418.87,94.13 414.95,97.50 413.91,99.61 C412.90,101.80 412.96,106.33 413.88,108.63 C414.90,111.04 417.79,114.17 419.99,115.40 C422.30,116.63 428.09,117.95 431.13,117.91 C431.58,117.91 432.44,117.84 433.70,117.71" fill="none" stroke="rgb(87, 41, 160)" stroke-width="11.00" stroke-opacity="1.00" stroke-linejoin="round"/>
<path d="M456.84,90.68 C457.96,91.96 458.59,92.78 459.82,94.64 C461.93,97.79 466.52,104.65 469.00,108.37 C472.33,113.30 474.49,115.89 475.36,115.55 C476.58,115.20 480.75,98.20 482.19,91.02 C482.40,89.87 482.62,88.72 482.84,87.56" fill="none" stroke="rgb(87, 41, 160)" stroke-width="11.00" stroke-opacity="1.00" stroke-linejoin="round"/>
<path d="M512.75,102.18 C512.74,101.77 512.61,100.63 512.43,99.95 C511.73,97.51 507.16,92.65 504.86,92.05 C503.51,91.75 501.07,92.45 499.69,93.54 C498.63,94.41 496.32,97.39 495.68,98.68 C494.93,100.29 494.30,103.51 494.40,105.13 C494.51,106.39 495.46,108.96 496.14,109.90 C497.02,111.06 498.92,112.28 500.23,112.55 C502.33,112.92 507.18,110.85 508.64,109.36 C509.39,108.58 511.52,105.72 512.75,104.00 C514.12,105.10 514.84,106.13 515.36,107.94 C516.83,112.95 517.41,114.56 517.51,114.47" fill="none" stroke="rgb(87, 41, 160)" stroke-width="11.00" stroke-opacity="1.00" stroke-linejoin="round"/>
<path d="M522.79,94.95 C522.79,94.95 523.13,93.27 523.13,93.27 C523.13,93.27 526.87,113.40 526.87,113.40 C526.92,113.21 527.03,106.38 527.79,103.05 C528.44,100.32 530.60,94.77 532.34,92.85 C533.72,91.38 537.99,90.13 540.06,90.74 C541.88,91.33 545.17,94.42 546.31,96.61 C547.56,99.11 548.53,102.71 548.51,106.70 C548.49,109.02 547.90,112.50 547.68,113.68 C547.61,114.06 547.58,114.36 547.58,114.60" fill="none" stroke="rgb(87, 41, 160)" stroke-width="11.00" stroke-opacity="1.00" stroke-linejoin="round"/>
<path d="M570.28,75.17 C570.28,75.17 571.09,74.11 571.09,74.11 C572.71,78.71 576.11,110.55 575.41,112.27 C575.65,107.82 576.85,101.65 578.47,97.35 C579.38,95.02 580.72,92.50 581.73,91.34 C582.82,90.14 585.15,88.63 586.38,88.37 C587.79,88.12 590.55,88.47 591.69,89.11 C593.01,89.90 595.06,92.20 595.77,93.71 C597.20,96.92 597.37,103.16 596.77,107.09 C596.59,108.18 596.02,110.38 595.79,111.21 C595.73,111.46 595.63,111.88 595.51,112.46" fill="none" stroke="rgb(87, 41, 160)" stroke-width="11.00" stroke-opacity="1.00" stroke-linejoin="round"/>
<path d="M607.33,105.50 C607.27,105.42 607.38,105.35 607.64,105.28 C611.00,104.57 617.56,102.30 619.68,100.55 C620.84,99.55 622.14,97.17 622.18,95.97 C622.17,94.87 621.00,92.49 620.15,91.67 C619.22,90.86 617.02,90.20 615.86,90.42 C614.72,90.69 612.50,92.29 611.48,93.53 C609.58,95.94 607.27,102.13 607.22,104.87 C607.22,107.56 609.33,111.63 611.15,112.58 C613.12,113.55 618.83,113.64 622.51,112.47 C626.07,111.30 629.04,109.67 630.97,108.44" fill="none" stroke="rgb(87, 41, 160)" stroke-width="11.00" stroke-opacity="1.00" stroke-linejoin="round"/>
<path d="M639.35,81.11 C639.23,87.89 639.49,99.29 640.58,105.55 C641.21,109.08 641.91,110.94 642.39,111.98" fill="none" stroke="rgb(87, 41, 160)" stroke-width="11.00" stroke-opacity="1.00" stroke-linejoin="round"/>
<path d="M635.35,96.43 C635.35,96.43 633.94,93.31 633.94,93.31 C635.05,92.53 642.47,92.18 646.79,91.97 C651.94,91.77 655.25,91.71 656.20,91.73" fill="none" stroke="rgb(87, 41, 160)" stroke-width="11.00" stroke-opacity="1.00" stroke-linejoin="round"/>
<path d="M355.01,155.24 C354.81,158.36 355.42,165.15 355.77,169.18 C356.34,175.17 356.98,180.75 357.34,182.75" fill="none" stroke="rgb(87, 41, 160)" stroke-width="11.00" stroke-opacity="1.00" stroke-linejoin="round"/>
<path d="M368.30,156.51 C368.26,159.81 368.10,168.30 368.22,171.25 C368.54,178.77 370.26,185.58 370.66,186.89" fill="none" stroke="rgb(87, 41, 160)" stroke-width="11.00" stroke-opacity="1.00" stroke-linejoin="round"/>
<path d="M371.22,166.36 C371.16,166.50 371.22,166.04 371.24,165.88 C371.38,164.55 371.53,163.31 371.68,162.15 C371.85,160.94 372.68,158.96 373.33,158.16 C373.98,157.41 376.22,156.38 377.49,156.21 C378.89,156.07 381.77,156.69 383.15,157.46 C384.56,158.29 386.11,160.02 387.00,161.65 C388.68,164.90 389.86,169.86 389.94,174.63 C389.97,177.12 389.84,179.16 389.59,181.11" fill="none" stroke="rgb(87, 41, 160)" stroke-width="11.00" stroke-opacity="1.00" stroke-linejoin="round"/>
<path d="M406.35,146.34 C406.35,146.34 405.56,145.92 405.56,145.92 C405.91,151.75 406.71,165.38 407.16,173.19 C407.39,176.84 407.67,181.24 407.72,181.98" fill="none" stroke="rgb(87, 41, 160)" stroke-width="11.00" stroke-opacity="1.00" stroke-linejoin="round"/>
<path d="M396.83,158.39 C397.48,158.20 398.40,158.02 399.49,157.93 C402.68,157.69 415.33,157.70 416.82,157.74" fill="none" stroke="rgb(87, 41, 160)" stroke-width="11.00" stroke-opacity="1.00" stroke-linejoin="round"/>
<path d="M427.36,165.27 C427.77,165.74 432.93,164.86 437.49,163.84 C440.32,163.15 446.31,160.40 446.87,158.99 C447.15,158.15 446.48,156.49 445.63,155.75 C444.22,154.59 439.24,153.02 436.69,153.39 C433.67,153.89 429.05,156.41 427.73,158.49 C426.63,160.33 425.44,165.41 425.63,168.30 C425.84,170.72 428.12,174.52 430.04,175.88 C431.84,177.09 437.10,178.33 440.52,177.93 C443.08,177.61 444.85,177.24 445.87,176.84 C446.11,176.74 446.32,176.60 446.49,176.42" fill="none" stroke="rgb(87, 41, 160)" stroke-width="11.00" stroke-opacity="1.00" stroke-linejoin="round"/>
<path d="M459.74,152.22 C459.78,152.09 459.91,151.71 459.90,151.84 C459.85,152.76 459.64,155.20 459.95,156.96 C460.81,161.89 462.95,170.40 463.53,173.14 C462.86,172.90 461.89,167.15 461.96,164.55 C462.10,161.53 463.27,157.53 464.71,156.14 C466.41,154.59 471.03,152.58 474.11,152.36 C476.33,152.23 477.11,152.25 478.43,152.42" fill="none" stroke="rgb(87, 41, 160)" stroke-width="11.00" stroke-opacity="1.00" stroke-linejoin="round"/>
<path d="M486.43,150.93 C485.95,150.79 485.66,150.77 485.56,150.88 C484.77,151.85 487.34,169.23 487.88,172.70 C487.58,169.74 487.86,165.14 488.47,162.07 C489.15,158.81 491.71,153.86 493.79,152.64 C495.99,151.43 501.17,151.62 502.98,152.81 C504.72,154.01 507.99,158.89 509.02,161.61 C510.12,164.64 510.07,171.69 510.02,172.70 C510.01,172.96 510.01,173.26 510.01,173.59" fill="none" stroke="rgb(87, 41, 160)" stroke-width="11.00" stroke-opacity="1.00" stroke-linejoin="round"/>
<path d="M520.46,162.63 C522.55,162.29 529.34,160.17 530.44,159.76 C533.03,158.76 537.69,155.62 538.15,153.65 C538.31,152.84 537.56,150.93 536.90,150.31 C535.23,148.83 530.15,147.66 527.81,148.05 C525.20,148.52 520.91,151.22 519.36,153.39 C517.95,155.45 517.08,159.22 517.17,161.99 C517.24,163.41 518.15,166.19 519.08,167.79 C520.10,169.47 525.20,172.11 528.24,172.24 C535.56,172.46 542.63,169.82 542.80,169.60" fill="none" stroke="rgb(87, 41, 160)" stroke-width="11.00" stroke-opacity="1.00" stroke-linejoin="round"/>
<path d="M554.21,139.28 C554.30,141.68 555.50,149.68 555.79,152.99 C556.29,158.98 556.39,171.83 556.23,174.03" fill="none" stroke="rgb(87, 41, 160)" stroke-width="11.00" stroke-opacity="1.00" stroke-linejoin="round"/>
<path d="M545.89,150.82 C546.83,150.41 562.75,149.46 563.59,149.39 C565.53,149.22 567.60,148.97 568.44,148.82" fill="none" stroke="rgb(87, 41, 160)" stroke-width="11.00" stroke-opacity="1.00" stroke-linejoin="round"/>
<path d="M348.42,143.85 C348.58,143.78 348.86,143.66 349.26,143.46 C350.37,142.91 351.49,142.35 352.61,141.79 C352.95,141.62 353.29,141.45 353.63,141.28" fill="none" stroke="rgb(87, 41, 160)" stroke-width="11.00" stroke-opacity="1.00" stroke-linejoin="round"/>
</g>
</svg>
