<?xml version="1.0" encoding="UTF-8" standalone="no"?>
<!DOCTYPE svg PUBLIC "-//W3C//DTD SVG 1.1//EN" "http://www.w3.org/Graphics/SVG/1.1/DTD/svg11.dtd">
<svg width="424.00" height="120.00" viewBox="0.00 0.00 424.00 120.00" xmlns="http://www.w3.org/2000/svg" xmlns:xlink="http://www.w3.org/1999/xlink">
<g stroke-linecap="round" transform="translate(1.00, 10.00)" id="Layer_5">
<path d="M348.51,79.23 C349.10,79.35 352.16,77.22 354.30,74.88 C358.91,69.76 363.26,61.30 364.46,56.65 C364.14,58.19 365.13,71.53 366.29,75.13 C367.11,77.57 369.69,82.47 372.59,83.68 C373.02,83.86 373.60,83.89 374.35,83.79" fill="none" stroke="rgb(196, 61, 112)" stroke-width="8.00" stroke-opacity="1.00" stroke-linejoin="round"/>
<path d="M372.75,85.08 C372.54,85.19 372.33,85.26 372.11,85.31 C368.57,86.05 364.81,88.28 361.98,91.25 C360.47,92.89 358.20,97.01 355.93,101.63 C354.45,104.70 353.14,108.01 352.75,109.09" fill="none" stroke="rgb(196, 61, 112)" stroke-width="8.00" stroke-opacity="1.00" stroke-linejoin="round"/>
<path d="M353.30,107.86 C353.40,107.78 353.49,107.62 353.59,107.39 C354.05,106.29 354.55,104.51 354.75,103.20 C355.15,100.54 355.39,96.21 355.00,93.60 C354.57,90.84 353.28,87.67 351.24,84.56 C350.03,82.74 348.99,81.61 347.54,80.43" fill="none" stroke="rgb(196, 61, 112)" stroke-width="8.00" stroke-opacity="1.00" stroke-linejoin="round"/>
<path d="M62.51,95.08 C63.45,93.29 64.02,92.16 64.24,91.68 C64.96,90.11 66.07,84.92 66.18,83.11 C66.37,79.60 65.59,72.87 65.11,70.82 C65.10,70.82 67.59,75.05 69.63,77.30 C71.27,79.08 75.19,82.30 78.40,84.01 C80.92,85.34 82.82,85.63 83.49,85.60" fill="none" stroke="rgb(196, 61, 112)" stroke-width="8.00" stroke-opacity="1.00" stroke-linejoin="round"/>
<path d="M62.72,93.93 C63.05,93.60 63.43,93.35 63.86,93.18 C65.62,92.48 68.92,91.88 70.36,92.05 C72.77,92.41 76.25,95.91 77.93,98.54 C79.55,101.12 82.14,105.91 82.86,107.25" fill="none" stroke="rgb(196, 61, 112)" stroke-width="8.00" stroke-opacity="1.00" stroke-linejoin="round"/>
<path d="M83.46,105.25 C83.35,105.16 83.25,105.06 83.17,104.95 C82.87,104.53 82.55,104.00 82.22,103.36 C80.64,100.28 79.26,94.70 78.95,92.48 C78.81,91.31 79.00,88.92 79.40,87.41 C79.87,85.68 80.68,84.74 82.03,84.07 C82.30,83.95 82.69,83.72 83.19,83.39" fill="none" stroke="rgb(196, 61, 112)" stroke-width="8.00" stroke-opacity="1.00" stroke-linejoin="round"/>
</g>
</svg>
