<?xml version="1.0" encoding="UTF-8" standalone="no"?>
<!DOCTYPE svg PUBLIC "-//W3C//DTD SVG 1.1//EN" "http://www.w3.org/Graphics/SVG/1.1/DTD/svg11.dtd">
<svg width="1920.00" height="375.00" viewBox="0.00 0.00 1920.00 375.00" xmlns="http://www.w3.org/2000/svg" xmlns:xlink="http://www.w3.org/1999/xlink">
<g stroke-linecap="round" id="Layer_4">
<path d="M-3.64,108.82 C13.11,99.17 53.58,75.83 77.29,62.14 C91.77,53.77 125.76,34.13 138.22,28.61 C146.47,24.97 163.41,18.90 172.12,16.47 C180.83,14.05 198.71,10.43 207.88,9.22 C217.06,8.02 235.87,6.84 245.51,6.85 C255.18,6.94 274.93,8.20 285.00,9.36 C302.39,11.75 329.88,17.56 342.34,20.71 C354.97,24.27 380.73,32.58 393.85,37.33 C407.14,42.49 434.21,54.01 447.99,60.37 C461.94,67.13 490.34,81.85 504.78,89.81 C519.39,98.17 549.18,116.21 564.19,125.49 C571.79,129.98 587.04,138.70 594.70,142.94 C610.10,150.93 641.20,165.57 656.94,171.97 C672.73,178.14 704.68,188.75 720.84,193.21 C737.05,197.42 769.82,204.13 786.39,206.64 C803.01,208.89 833.20,211.45 853.04,212.24 C867.87,212.45 897.76,211.75 912.83,210.85 C927.97,209.57 958.49,205.92 973.87,203.54 C989.32,200.79 1020.46,194.19 1036.15,190.33 C1051.92,186.11 1083.69,176.55 1099.69,171.22 C1115.77,165.52 1148.17,153.01 1164.48,146.20 C1180.85,139.03 1213.37,125.09 1229.52,118.32 C1245.41,112.05 1276.94,100.02 1292.58,94.26 C1307.97,89.00 1338.47,79.00 1353.60,74.25 C1368.47,70.01 1398.02,61.91 1412.57,58.31 C1426.99,54.96 1455.46,49.02 1469.49,46.43 C1483.40,44.09 1518.08,39.35 1538.69,37.29 C1548.88,36.49 1569.05,35.34 1579.03,35.00 C1588.93,34.80 1608.52,34.86 1618.20,35.12 C1627.81,35.53 1646.82,36.80 1656.21,37.66 C1665.53,38.68 1683.96,41.16 1693.06,42.62 C1702.09,44.24 1719.93,47.93 1728.75,50.00 C1745.55,54.28 1823.16,78.27 1850.93,86.85 C1872.86,93.64 1908.30,104.63 1921.82,108.82" fill="none" stroke="rgb(183, 186, 219)" stroke-width="15.00" stroke-opacity="1.00" stroke-linejoin="round"/>
<path d="M44.63,206.61 C46.74,204.31 51.80,198.85 54.73,195.71 C57.88,192.43 60.13,190.62 65.29,187.60 C82.66,177.40 89.17,173.08 94.31,170.10 C96.25,168.99 97.64,167.27 98.35,166.94 C98.85,166.71 100.11,166.93 100.83,166.12 C101.07,165.84 102.89,164.05 103.31,163.64 C101.70,163.65 97.31,163.69 96.69,163.64 C95.32,163.53 92.91,164.93 91.74,165.29 C91.21,165.46 90.58,165.05 90.08,165.29 C89.38,165.63 86.88,168.09 85.12,168.60 C84.59,168.75 83.05,168.65 81.02,169.42 C79.02,170.19 77.32,169.95 76.86,170.25 C76.21,170.68 75.95,171.67 75.21,171.90 C74.16,172.23 72.97,171.62 71.90,171.90 C71.15,172.10 68.93,174.60 66.94,175.21 C66.44,175.37 64.12,175.03 63.64,175.21 C63.27,175.33 62.11,176.63 61.16,176.86 C59.82,177.18 55.62,176.69 55.37,176.86 C54.72,177.29 54.44,178.23 53.72,178.51 C52.92,178.83 45.60,178.41 45.45,178.51 C44.83,178.98 44.53,179.90 43.80,180.17 C42.98,180.48 39.13,179.99 38.84,180.17 C38.59,180.32 38.04,180.87 37.19,181.82 C37.19,181.82 36.36,180.99 36.36,180.99 C36.87,180.24 38.34,180.40 38.84,180.17 C39.55,179.83 40.92,178.14 42.49,177.34 C44.06,176.55 46.10,174.14 47.11,173.55 C47.58,173.28 48.98,173.52 49.59,172.73 C50.25,171.89 54.18,169.46 59.35,166.64 C61.60,165.42 66.94,163.46 68.60,161.98 C69.18,161.47 70.69,160.05 72.55,159.54 C74.33,159.08 77.33,157.37 78.51,157.02 C79.04,156.87 79.67,157.26 80.17,157.02 C80.44,156.89 82.40,154.84 82.64,154.55 C83.30,153.76 84.59,153.87 85.12,153.72 C86.99,153.23 89.33,150.63 90.08,150.41 C91.14,150.10 92.29,150.51 93.39,150.41 C93.60,150.40 95.34,148.51 95.87,147.93 C96.58,147.12 97.86,147.37 98.35,147.11 C98.90,146.56 99.45,146.01 100.00,145.45 C100.49,145.20 101.97,145.38 102.48,144.63 C102.16,143.96 100.05,143.31 98.35,143.80 C97.17,144.15 96.21,145.07 95.04,145.45 C94.52,145.63 93.89,145.22 93.39,145.45 C92.69,145.80 90.11,148.32 88.43,148.76 C87.90,148.90 87.30,148.58 86.78,148.76 C85.12,149.59 82.64,150.41 81.82,150.41 C80.65,150.81 79.69,151.69 78.51,152.07 C77.99,152.23 77.36,151.83 76.86,152.07 C76.58,152.20 74.63,154.25 74.38,154.55 C73.77,155.32 72.43,155.21 71.90,155.37 C71.67,155.44 71.40,155.71 71.07,156.20 C71.60,156.87 72.77,157.43 73.55,157.02 C73.80,156.89 76.03,154.55 76.86,153.72 C78.28,152.19 78.95,151.84 80.17,152.07 C81.37,152.30 82.13,151.90 83.47,150.41 C83.73,150.12 84.91,148.82 85.12,148.76 C85.66,148.62 86.90,148.74 87.60,147.93 C88.43,147.11 89.99,145.47 90.08,145.45 C90.62,145.35 93.42,144.99 95.04,143.80 C96.95,141.89 106.38,137.25 106.61,137.19 C107.14,137.05 107.78,137.46 108.26,137.19 C108.94,136.81 109.23,135.90 109.92,135.54 C110.40,135.28 111.68,135.52 112.40,134.71 C113.22,133.88 114.76,132.25 114.88,132.23 C115.42,132.16 116.05,132.51 116.53,132.23 C117.20,131.83 117.43,130.79 118.18,130.58 C119.24,130.28 120.50,131.07 121.49,130.58 C122.38,130.13 122.36,128.72 123.14,128.10 C124.04,127.40 125.37,127.63 126.45,127.27 C127.55,126.72 128.65,126.17 129.75,125.62 C130.28,125.46 130.89,125.80 131.40,125.62 C132.56,125.20 133.52,124.26 134.71,123.97 C135.78,123.70 136.92,124.05 138.02,123.97 C138.02,123.97 141.13,120.68 141.32,120.66 C142.42,120.58 143.56,120.94 144.63,120.66 C145.82,120.36 146.75,119.35 147.93,119.01 C148.97,118.70 152.64,119.20 152.89,119.01 C153.52,118.54 153.81,117.62 154.55,117.36 C155.42,117.02 159.09,117.53 159.50,117.36 C160.64,116.89 161.63,116.06 162.81,115.70 C163.34,115.54 163.99,115.99 164.46,115.70 C165.13,115.30 165.39,114.34 166.12,114.05 C166.63,113.85 170.07,114.09 172.10,114.13 C174.40,114.19 175.41,112.96 176.03,112.40 C174.29,112.23 173.18,112.23 172.73,112.40 C171.99,112.66 171.75,113.67 171.07,114.05 C170.52,114.05 169.97,114.05 169.42,114.05 C168.74,114.43 168.51,115.46 167.77,115.70 C166.67,115.70 165.56,115.70 164.46,115.70 C163.72,115.94 163.47,116.93 162.81,117.36 C162.34,117.64 161.68,117.19 161.16,117.36 C159.99,117.75 159.05,118.73 157.85,119.01 C156.78,119.26 155.61,118.71 154.55,119.01 C153.80,119.23 153.51,120.18 152.89,120.66 C151.92,121.41 146.53,123.91 146.28,123.97 C145.20,124.18 144.04,123.69 142.98,123.97 C141.87,124.52 140.77,125.07 139.67,125.62 C138.60,125.90 137.46,125.54 136.36,125.62 C136.17,125.64 134.71,127.27 133.88,128.10 C133.25,128.90 131.40,128.93 129.75,128.93 C128.99,129.00 125.27,130.52 124.79,130.58 C124.25,130.64 123.61,130.28 123.14,130.58 C122.48,131.00 122.23,131.98 121.49,132.23 C120.44,132.59 119.27,132.04 118.18,132.23 C117.29,132.39 112.08,135.39 111.57,135.54 C111.04,135.69 110.44,135.35 109.92,135.54 C108.76,135.96 107.81,136.91 106.61,137.19 C105.54,137.43 104.34,136.82 103.31,137.19 C102.57,137.46 102.39,138.59 101.65,138.84 C100.61,139.20 99.41,138.57 98.35,138.84 C97.59,139.04 95.37,141.55 93.39,142.15 C92.74,142.36 90.50,141.87 90.08,142.15 C89.44,142.59 89.17,143.57 88.43,143.80 C87.33,143.80 86.23,143.80 85.12,143.80 C84.38,144.04 84.15,145.07 83.47,145.45 C82.99,145.72 82.31,145.22 81.82,145.45 C81.27,146.01 80.72,146.56 80.17,147.11 C79.61,147.11 79.06,147.11 78.51,147.11 C77.96,147.66 77.41,148.21 76.86,148.76 C76.31,148.76 75.76,148.76 75.21,148.76 C74.51,149.11 74.23,150.03 73.55,150.41 C73.26,150.57 72.71,150.57 71.90,150.41 C74.17,150.59 77.47,150.68 78.51,150.41 C79.57,150.15 81.56,148.04 81.82,147.93 C82.86,147.49 85.59,146.95 85.95,146.28 C86.25,145.77 92.96,143.94 93.39,143.80 C94.71,143.36 95.99,141.20 96.69,140.50 C97.06,140.13 105.74,137.26 108.26,135.54 C108.59,135.32 109.90,133.98 110.74,133.88 C111.57,133.80 112.46,134.21 113.22,133.88 C113.94,133.58 114.21,132.63 114.88,132.23 C115.35,131.96 116.00,132.39 116.53,132.23 C117.70,131.86 118.67,130.98 119.83,130.58 C120.36,130.40 120.96,130.73 121.49,130.58 C121.49,130.58 127.99,127.36 128.10,127.27 C128.71,126.79 129.00,125.82 129.75,125.62 C130.82,125.35 132.01,125.97 133.06,125.62 C133.80,125.37 133.98,124.23 134.71,123.97 C135.75,123.59 136.92,124.04 138.02,123.97 C138.23,123.95 141.13,120.68 141.32,120.66 C142.42,120.56 143.55,120.89 144.63,120.66 C145.19,120.54 152.83,116.61 156.20,115.70 C157.44,115.38 197.57,105.81 197.52,105.79 C197.43,105.75 193.22,105.80 191.74,105.79" fill="none" stroke="rgb(183, 186, 219)" stroke-width="148.60" stroke-opacity="1.00" stroke-linejoin="round"/>
<path d="M119.01,133.88 C121.79,132.39 128.32,128.91 132.08,126.93 C137.37,124.73 148.91,119.27 154.55,117.36 C155.32,117.09 162.69,114.00 165.95,113.22 C175.68,110.92 182.59,107.45 182.64,107.44 C183.72,107.21 184.88,107.70 185.95,107.44 C187.15,107.14 188.09,106.18 189.26,105.79 C189.78,105.62 190.44,106.07 190.91,105.79 C191.58,105.38 191.84,104.42 192.56,104.13 C193.06,103.93 198.26,104.29 199.17,104.13 C199.60,104.06 202.44,102.64 203.31,102.48 C204.20,102.30 206.97,102.63 207.44,102.48 C208.61,102.10 211.47,100.47 213.21,99.86 C215.76,98.97 221.87,99.37 222.31,99.17 C222.87,98.62 223.42,98.07 223.97,97.52 C224.72,97.20 232.09,97.62 232.23,97.52 C232.86,97.06 233.16,96.15 233.88,95.87 C234.36,95.67 239.77,96.05 240.50,95.87 C240.84,95.79 241.11,95.51 241.32,95.04 C241.00,94.33 238.29,94.24 237.19,94.21 C235.10,94.17 234.00,94.17 233.88,94.21 C233.17,94.53 232.97,95.63 232.23,95.87 C231.18,96.21 229.97,95.53 228.93,95.87 C228.19,96.11 227.99,97.22 227.27,97.52 C226.49,97.84 222.58,97.34 222.31,97.52 C221.67,97.95 221.35,98.81 220.66,99.17 C220.18,99.43 219.53,99.00 219.01,99.17 C217.84,99.57 216.90,100.53 215.70,100.83 C214.60,100.83 213.50,100.83 212.40,100.83 C211.20,101.12 210.27,102.13 209.09,102.48 C207.99,102.80 204.55,102.30 204.13,102.48 C203.00,102.96 202.02,103.81 200.83,104.13 C199.74,104.44 196.12,103.94 195.87,104.13 C195.25,104.61 194.96,105.56 194.21,105.79 C193.16,106.11 191.96,105.44 190.91,105.79 C190.17,106.03 189.97,107.12 189.26,107.44 C188.65,107.70 183.43,107.19 182.64,107.44 C181.47,107.79 180.53,108.77 179.34,109.09 C178.75,109.25 177.65,109.25 176.03,109.09 C178.61,107.19 182.45,104.17 182.64,104.13 C183.19,104.04 183.81,104.39 184.30,104.13 C184.98,103.76 185.25,102.82 185.95,102.48 C186.44,102.23 187.10,102.70 187.60,102.48 C188.06,102.28 191.14,98.69 191.74,98.35 C192.49,97.91 193.47,97.98 194.21,97.52 C194.88,97.12 195.18,96.24 195.87,95.87 C196.15,95.72 196.70,95.72 197.52,95.87 C190.59,95.56 178.23,97.51 177.69,97.52 C177.14,97.53 175.76,97.67 174.38,99.17 C174.12,99.46 173.08,100.76 172.73,100.83 C171.71,101.03 167.95,100.69 167.77,100.83 C167.14,101.28 166.84,102.19 166.12,102.48 C165.74,102.63 157.72,102.47 156.20,102.48 C156.20,102.48 155.37,100.00 155.37,100.00 C155.55,99.50 155.82,99.23 156.20,99.17 C157.29,99.02 158.47,99.54 159.50,99.17 C160.24,98.91 160.42,97.77 161.16,97.52 C162.21,97.18 163.41,97.86 164.46,97.52 C165.20,97.28 165.40,96.16 166.12,95.87 C166.89,95.55 170.79,96.04 171.07,95.87 C171.34,95.71 173.35,93.72 173.55,93.39 C174.06,92.63 175.15,92.40 177.69,92.56 C179.59,92.69 180.70,92.69 180.99,92.56 C181.54,92.01 182.09,91.46 182.64,90.91 C183.22,90.66 188.66,91.16 189.26,90.91 C189.98,90.62 190.22,89.63 190.91,89.26 C191.40,88.99 238.15,89.06 238.84,89.26 C240.03,89.59 240.98,90.52 242.15,90.91 C242.50,91.03 253.59,90.82 253.72,90.91 C254.35,91.37 254.65,92.28 255.37,92.56 C255.85,92.76 261.22,92.40 261.98,92.56 C262.25,92.62 262.99,93.66 263.64,94.21 C261.10,94.17 258.80,94.31 258.68,94.21 C258.05,93.75 257.76,92.82 257.02,92.56 C255.99,92.19 252.93,92.52 251.24,91.90 C249.63,91.34 241.95,88.17 241.83,88.09 C240.30,87.03 237.90,86.45 237.19,85.95 C236.56,85.50 236.28,84.52 235.54,84.30 C234.48,84.00 233.28,84.63 232.23,84.30 C231.49,84.07 231.24,83.05 230.58,82.64 C230.31,82.48 229.76,82.48 228.93,82.64 C261.82,82.66 304.78,82.52 304.96,82.64 C305.60,83.09 305.88,84.03 306.61,84.30 C307.26,84.54 311.28,84.17 311.57,84.30 C311.74,84.37 312.02,84.65 312.40,85.12 C310.40,87.26 309.66,87.78 308.26,87.60 C305.57,87.27 300.17,87.73 300.00,87.60 C299.38,87.13 299.09,86.19 298.35,85.95 C297.30,85.61 296.12,86.19 295.04,85.95 C293.84,85.67 292.89,84.72 291.74,84.30 C291.22,84.11 289.84,84.24 288.40,83.27 C287.01,82.34 285.04,81.36 282.82,80.51 C280.57,79.67 279.26,77.90 278.51,77.69 C277.45,77.40 276.26,78.02 275.21,77.69 C274.46,77.45 274.22,76.43 273.55,76.03 C273.08,75.75 271.74,76.00 271.07,75.21 C270.93,75.03 270.65,74.75 270.25,74.38 C271.71,74.21 283.13,78.29 285.95,80.17 C286.41,80.42 296.11,84.12 296.69,84.30 C300.02,85.30 304.40,87.27 309.09,88.43 C312.47,89.24 314.35,89.08 314.88,89.26 C315.25,89.38 316.47,90.79 317.36,90.91 C318.17,91.02 320.19,90.99 321.69,92.08 C323.86,93.64 329.87,94.32 330.58,95.04 C331.12,95.59 331.39,95.87 331.40,95.87 C332.50,96.02 333.63,95.65 334.71,95.87 C336.51,96.22 338.91,98.98 339.67,99.17 C340.74,99.45 341.93,98.82 342.98,99.17 C343.71,99.42 343.90,100.56 344.63,100.83 C345.67,101.19 346.86,100.59 347.93,100.83 C349.13,101.10 350.08,102.05 351.24,102.48 C351.76,102.67 353.42,102.63 356.17,104.13 C358.88,105.62 360.69,105.49 361.16,105.79 C361.81,106.21 362.07,107.20 362.81,107.44 C363.86,107.76 365.07,107.09 366.12,107.44 C366.85,107.69 367.03,108.84 367.77,109.09 C368.81,109.44 370.01,108.82 371.07,109.09 C371.83,109.29 374.24,111.97 376.03,112.40 C376.57,112.53 377.21,112.12 377.69,112.40 C378.36,112.78 378.64,113.70 379.34,114.05 C379.89,114.05 380.44,114.05 380.99,114.05 C381.69,114.40 381.96,115.32 382.64,115.70 C382.94,115.86 383.49,115.86 384.30,115.70 C379.46,115.68 371.28,115.75 371.07,115.70 C370.86,115.64 370.06,114.61 369.42,114.05 C371.01,113.89 372.11,113.89 372.73,114.05 C373.92,114.37 374.87,115.31 376.03,115.70 C376.86,115.70 378.26,115.91 380.85,117.70 C384.40,120.14 392.59,122.32 393.98,123.26 C396.17,124.72 402.69,127.03 405.79,128.10 C407.73,128.77 414.56,131.79 415.35,131.89 C417.56,132.16 420.33,133.88 423.14,133.88 C424.04,134.02 425.29,135.33 425.62,135.54 C427.54,136.79 430.05,137.02 430.58,137.19 C431.80,137.58 439.76,142.02 440.50,142.15 C441.58,142.33 442.71,142.01 443.80,142.15 C444.41,142.22 450.09,145.24 450.41,145.45 C452.34,146.73 454.90,146.82 455.37,147.11 C456.04,147.50 456.31,148.45 457.02,148.76 C457.78,149.09 460.37,148.85 461.16,149.59 C461.44,149.85 461.60,150.34 461.98,150.41 C462.52,150.53 463.14,150.18 463.64,150.41 C464.34,150.74 466.94,153.32 468.60,153.72 C469.13,153.85 469.77,153.45 470.25,153.72 C470.93,154.10 471.20,155.02 471.90,155.37 C472.45,155.37 473.00,155.37 473.55,155.37 C474.25,155.72 474.52,156.66 475.21,157.02 C475.69,157.29 477.55,157.11 477.69,157.85 C477.78,158.39 477.79,159.85 478.51,160.33 C471.32,160.32 449.34,160.49 448.76,160.33 C447.57,160.00 444.83,158.42 443.52,158.54 C441.53,158.71 432.37,158.89 429.68,157.83 C427.84,157.08 425.06,157.16 423.97,157.02 C423.87,157.01 420.43,155.59 419.01,155.37 C417.82,155.19 380.46,155.42 380.17,155.37 C379.39,155.25 375.06,153.84 374.38,153.72 C373.59,153.58 352.81,153.61 344.83,153.68 C339.35,153.76 336.41,154.07 331.97,155.25 C328.47,156.20 320.09,158.45 319.77,158.51 C319.06,158.67 314.27,158.39 310.61,159.83 C309.63,160.22 305.70,161.90 304.96,161.98 C303.86,162.10 300.63,162.05 298.50,162.60 C295.48,163.38 289.24,166.32 285.81,166.70 C284.48,166.84 281.09,167.04 280.60,167.12 C279.18,167.37 271.62,171.30 270.01,171.53 C267.82,171.84 261.70,173.91 258.12,175.12 C254.61,176.38 249.01,178.35 246.28,180.17 C243.97,181.48 234.83,183.71 233.06,184.30 C232.01,184.65 224.00,188.35 221.49,189.26 C218.98,190.16 204.51,194.33 197.52,197.52 C194.06,199.11 187.56,202.57 184.80,204.10 C182.00,205.51 163.83,211.73 155.36,215.72 C145.97,220.16 137.03,225.34 136.36,225.62 C135.32,226.07 131.72,227.06 131.40,227.27 C130.76,227.71 129.14,229.37 126.47,230.58 C125.98,230.80 116.22,236.54 115.70,237.19 C115.32,237.67 115.35,238.45 114.88,238.84 C114.29,239.34 110.24,241.06 109.92,241.32 C109.31,241.81 107.45,243.74 107.44,243.80 C107.37,244.35 107.70,244.97 107.44,245.45 C107.08,246.15 106.20,246.45 105.79,247.11 C105.41,247.73 106.08,249.51 106.61,249.59 C107.16,249.65 107.79,249.30 108.26,249.59 C108.94,249.98 109.18,250.99 109.92,251.24 C110.96,251.58 112.15,250.99 113.22,251.24 C114.42,251.51 115.37,252.47 116.53,252.89 C117.24,253.14 190.02,252.89 192.83,253.02 C195.35,253.05 205.41,251.32 206.61,251.24 C207.49,251.18 211.63,251.29 212.40,251.24 C213.40,251.17 223.13,249.42 227.00,249.45 C237.47,249.55 254.58,247.91 255.46,247.92 C258.09,247.96 280.43,244.69 281.82,244.63 C283.16,244.57 292.96,244.69 295.15,244.35 C299.05,243.68 329.46,239.54 332.98,239.68 C340.48,240.02 349.27,238.94 359.23,237.14 C374.08,234.31 395.30,229.78 404.96,227.27 C403.25,226.53 400.24,226.73 399.17,226.45 C397.98,226.13 397.04,225.17 395.87,224.79 C395.08,224.54 392.57,224.73 390.47,223.99 C387.68,223.05 383.48,223.17 376.72,223.14 C369.56,223.11 362.85,223.33 361.98,223.14 C361.03,222.93 356.89,221.69 355.37,221.49 C354.23,221.34 259.46,221.39 225.27,221.47 C219.83,221.49 205.74,221.87 200.91,222.69 C189.13,224.79 157.40,228.41 141.63,230.10 C133.40,231.24 117.55,233.99 110.32,235.37 C99.76,237.33 88.96,238.10 85.12,238.84 C82.47,239.36 61.72,244.47 58.68,244.63 C52.59,244.99 48.32,245.37 46.37,246.06 C41.82,247.72 23.18,251.31 19.83,252.07 C15.87,252.97 4.02,256.03 0.83,256.20" fill="none" stroke="rgb(183, 186, 219)" stroke-width="148.60" stroke-opacity="1.00" stroke-linejoin="round"/>
<path d="M0.83,335.54 C3.56,336.13 9.60,337.38 12.04,337.37 C13.99,337.18 18.09,336.98 22.01,337.69 C26.25,338.50 36.52,340.43 37.19,340.50 C38.09,340.58 43.24,340.56 50.24,341.68 C55.72,342.07 71.31,343.94 74.28,343.97 C90.03,343.89 116.39,343.60 118.18,343.80 C120.07,344.02 127.74,345.49 131.37,345.49 C163.67,345.54 228.55,345.44 261.14,345.29 C267.80,345.24 281.94,346.92 285.95,347.11 C288.56,347.22 379.64,347.21 417.33,347.14 C431.17,347.13 462.57,347.14 480.14,347.18 C488.30,347.16 488.72,346.99 489.26,346.28 C488.99,345.53 486.17,345.81 485.12,345.45 C484.38,345.21 484.16,344.17 483.47,343.80 C482.78,343.44 472.54,344.06 471.90,343.80 C470.76,343.33 469.79,342.47 468.60,342.15 C467.46,341.83 464.05,342.33 463.64,342.15 C462.50,341.68 459.45,340.22 456.82,340.33 C453.81,340.45 446.43,340.71 442.63,339.64 C442.60,339.63 432.63,337.44 430.58,337.19 C429.09,337.01 418.93,337.40 414.86,336.36 C411.15,335.41 404.93,335.69 401.57,334.71 C398.37,333.77 392.33,334.01 390.37,333.44 C387.10,332.49 381.79,332.01 376.87,332.06 C370.90,332.19 367.31,332.39 366.12,332.23 C359.91,331.16 344.69,328.89 341.60,328.99 C339.76,329.04 333.52,327.49 331.40,327.27 C328.91,327.02 318.58,327.42 318.14,327.43 C314.74,327.44 291.02,324.45 290.51,324.30 C287.13,323.28 270.07,322.40 261.77,322.03 C250.14,321.42 214.81,316.65 206.44,316.15 C190.11,315.36 165.96,314.03 161.46,314.15 C161.18,314.15 146.53,312.40 136.85,312.28 C101.59,312.23 59.71,312.25 53.09,312.31 C50.75,312.36 46.13,312.70 43.80,314.05 C47.11,314.05 54.39,314.08 55.37,314.05 C58.17,313.97 59.72,314.61 60.25,314.88 C62.23,315.88 66.86,315.88 72.73,315.70 C78.61,315.52 82.38,315.52 85.47,316.53 C88.57,317.53 95.23,317.53 98.35,317.36 C102.47,317.13 107.01,317.96 109.88,318.56 C113.92,319.08 134.43,318.93 142.09,318.93 C150.39,319.05 163.73,320.92 167.80,320.59 C170.49,320.52 193.55,322.19 196.69,322.31 C200.82,322.47 205.98,322.16 209.09,322.31 C211.44,322.44 229.63,324.13 237.36,324.10 C248.67,323.92 258.16,324.12 264.77,325.29 C267.29,325.67 309.21,325.62 325.56,325.60 C326.13,325.60 344.02,327.24 354.45,327.29 C362.62,327.23 381.94,327.14 385.95,327.27 C391.86,327.48 403.83,328.93 413.66,329.09 C421.97,329.05 443.34,328.74 443.49,328.74 C446.30,328.80 463.53,330.55 471.50,330.66 C475.52,330.71 496.38,330.45 502.28,331.02 C513.99,332.33 547.40,332.31 563.50,332.22 C570.30,332.23 586.61,332.27 588.45,332.71 C593.29,333.86 608.62,334.01 615.88,334.04 C633.89,333.97 677.36,333.96 677.69,333.88 C678.49,333.69 681.80,332.49 683.47,332.23 C686.80,331.73 702.85,332.38 703.31,332.23 C705.10,331.60 706.21,331.05 706.61,330.58 C706.88,330.23 697.54,327.98 696.05,327.68 C693.16,327.12 689.72,327.13 683.27,327.44 C680.98,327.55 678.04,325.98 676.86,325.62 C676.35,325.46 675.52,325.46 674.38,325.62" fill="none" stroke="rgb(183, 186, 219)" stroke-width="148.60" stroke-opacity="1.00" stroke-linejoin="round"/>
<path d="M490.91,219.83 C492.81,219.69 493.97,219.98 495.57,221.23 C498.81,223.71 504.80,227.72 508.65,229.90 C511.73,231.63 516.84,233.13 518.11,234.18 C520.01,235.75 524.76,237.99 527.37,239.17 C529.52,240.21 533.80,243.89 535.85,244.49 C540.92,245.94 570.07,261.40 571.46,262.57 C573.77,264.49 579.98,266.31 581.86,267.30 C587.11,270.01 591.26,272.04 592.63,273.24 C593.79,274.26 595.34,274.21 595.87,274.38 C597.04,274.75 605.34,279.24 605.79,279.34 C606.32,279.47 607.95,279.51 609.90,280.98 C611.91,282.48 613.22,282.64 614.05,282.64 C615.22,283.04 616.17,283.95 617.36,284.30 C617.88,284.45 618.55,284.00 619.01,284.30 C619.99,284.93 620.54,286.09 621.49,286.78 C622.10,287.23 625.31,287.47 625.62,287.60 C625.98,287.75 626.91,288.82 628.10,289.26 C628.92,289.55 634.78,291.36 636.39,292.57 C638.59,294.21 642.15,295.04 643.80,295.87 C644.32,296.04 646.10,296.07 648.76,297.52 C646.97,297.65 645.87,297.65 645.45,297.52 C644.71,297.29 644.43,296.33 643.80,295.87 C642.82,295.13 640.29,294.10 639.67,293.39 C638.84,292.56 637.30,290.93 637.19,290.91 C636.65,290.80 635.12,290.79 633.99,289.77 C632.90,288.80 629.96,287.44 628.93,286.78 C628.23,286.33 626.00,283.74 625.62,283.47 C625.12,283.11 623.41,282.29 621.51,280.69 C619.59,279.07 617.96,277.35 617.36,276.86 C616.45,276.12 614.55,276.27 614.05,276.03 C614.02,276.02 606.74,270.36 606.61,270.25 C604.39,268.48 600.70,267.46 600.00,266.94 C599.05,266.26 598.48,265.13 597.52,264.46 C596.81,263.96 594.53,263.44 592.94,262.30 C587.38,258.84 578.02,252.25 577.69,252.07 C576.90,251.62 572.27,250.58 571.90,250.41 C571.17,250.09 568.34,247.41 567.77,247.11 C567.00,246.69 563.88,245.74 561.98,244.63 C561.30,244.23 552.72,237.61 552.07,237.19 C551.40,236.75 546.66,235.74 546.28,235.54 C545.59,235.18 545.26,234.34 544.63,233.88 C543.63,233.16 539.65,231.35 538.84,230.58 C538.56,230.31 538.40,229.82 538.02,229.75 C537.20,229.61 534.28,229.62 533.06,228.93 C532.51,228.62 530.17,226.55 529.75,226.45 C529.22,226.31 527.91,226.39 526.13,225.02 C524.46,223.76 521.84,222.52 519.20,221.75 C511.74,219.59 508.65,216.61 508.26,216.53 C507.72,216.42 507.09,216.81 506.61,216.53 C505.94,216.13 505.70,215.13 504.96,214.88 C503.92,214.52 502.75,214.95 501.65,214.88 C501.44,214.86 499.70,212.97 499.17,212.40 C498.47,211.60 497.22,211.73 496.69,211.57 C496.47,211.50 496.19,211.23 495.87,210.74 C496.32,210.07 497.04,209.79 498.99,209.73 C500.88,209.69 503.51,210.47 504.96,211.57 C505.58,212.05 505.91,212.88 506.61,213.22 C507.11,213.46 507.74,213.05 508.26,213.22 C509.43,213.62 510.37,214.58 511.57,214.88 C512.64,215.14 513.79,214.71 514.88,214.88 C515.50,214.98 517.49,217.08 518.18,217.36 C519.23,217.78 527.49,220.34 528.10,220.66 C528.98,221.13 531.14,222.64 532.73,223.14 C534.28,223.63 535.70,225.21 536.36,225.62 C536.88,225.94 543.28,227.63 546.28,228.10 C547.20,228.24 548.89,230.22 549.59,230.58 C549.80,230.69 554.71,231.82 555.37,232.23 C555.70,232.44 555.82,232.95 556.20,233.06 C556.73,233.22 558.09,233.12 559.92,234.17 C561.59,235.11 564.17,236.02 566.50,236.48 C569.07,236.99 570.47,238.35 571.07,238.84 C571.42,239.12 579.67,242.19 583.24,243.99 C585.06,244.90 587.19,246.23 587.60,246.28 C588.70,246.41 592.05,246.35 592.56,247.11 C593.65,248.75 594.20,249.58 594.21,249.59 C595.22,250.05 596.46,249.29 597.52,249.59 C598.27,249.80 598.50,250.85 599.17,251.24 C599.66,251.50 600.33,251.00 600.83,251.24 C601.52,251.59 601.80,252.51 602.48,252.89 C602.77,253.05 603.33,253.05 604.13,252.89 C599.84,253.22 594.68,252.68 590.76,251.34 C588.22,250.43 572.91,242.07 569.79,241.33 C566.81,240.63 561.62,236.87 559.70,236.18 C559.08,235.96 554.68,234.71 553.72,233.88 C553.05,233.31 550.45,231.76 548.63,230.81 C546.76,229.85 545.15,229.91 544.63,229.75 C544.23,229.63 536.94,224.53 535.54,223.97 C534.56,223.57 530.97,222.57 530.58,222.31 C529.93,221.88 528.59,220.38 527.27,219.83 C526.16,219.36 520.20,215.00 519.83,214.88 C519.24,214.67 516.46,214.50 515.70,214.05 C515.12,213.71 512.81,211.01 512.40,210.74 C512.14,210.57 508.65,209.64 507.44,209.09 C506.08,208.48 498.90,203.58 495.04,201.65 C494.48,201.35 488.81,196.78 488.43,196.69 C487.89,196.57 486.34,196.58 485.12,195.61 C483.84,194.60 481.99,192.67 481.82,192.56 C480.96,191.99 477.12,190.30 476.86,190.08 C474.44,188.04 469.30,183.80 468.60,183.47 C468.10,183.24 467.47,183.64 466.94,183.47 C466.81,183.43 460.44,176.88 460.33,176.86 C459.79,176.77 457.94,176.72 457.85,176.03 C457.79,175.49 457.63,173.92 456.20,172.73 C456.44,172.04 458.51,171.57 460.33,171.90 C460.35,171.90 464.52,176.15 466.40,177.21 C468.76,178.55 472.40,181.61 474.38,183.47 C475.38,184.19 479.16,185.88 480.17,186.78 C482.45,188.79 486.94,190.80 489.16,192.70 C491.48,194.68 495.53,196.02 496.69,196.69 C497.65,197.25 503.36,201.83 505.73,202.96 C509.31,204.67 514.61,207.79 515.70,208.26 C528.10,213.22 533.52,216.37 537.68,218.05 C538.08,218.22 541.69,220.94 546.80,222.93 C550.73,224.39 553.23,225.23 557.28,226.43 C559.08,226.96 560.51,228.49 561.16,228.93 C563.82,230.69 570.68,231.92 571.50,232.33 C573.01,233.05 576.31,234.65 576.86,234.71 C577.68,234.79 578.58,234.38 579.34,234.71 C580.05,235.02 580.32,235.97 580.99,236.36 C581.47,236.64 582.12,236.20 582.64,236.36 C583.75,236.91 584.85,237.47 585.95,238.02 C586.48,238.18 587.13,237.73 587.60,238.02 C588.26,238.43 588.52,239.41 589.26,239.67 C589.71,239.83 590.82,239.83 592.56,239.67 C589.90,238.46 588.43,237.19 587.60,236.36 C586.59,235.66 583.57,234.32 582.48,233.47 C581.37,232.62 579.55,230.72 579.34,230.58 C578.31,229.88 574.67,228.35 574.38,228.10 C571.50,225.22 567.94,222.90 566.12,221.49 C565.62,221.24 563.45,221.44 562.81,220.66 C562.17,219.90 561.92,218.82 561.16,218.18 C560.49,217.62 558.10,217.15 556.54,216.13 C549.77,211.74 541.76,206.74 535.80,203.90 C535.56,203.78 529.91,199.75 525.62,198.35 C524.26,197.91 523.61,196.27 523.14,195.87 C522.77,195.54 517.49,193.15 516.53,192.56 C515.92,192.20 513.65,190.18 513.22,190.08 C512.68,189.97 512.06,190.34 511.57,190.08 C510.88,189.71 510.61,188.78 509.92,188.43 C509.37,188.43 508.82,188.43 508.26,188.43 C507.71,187.88 507.16,187.33 506.61,186.78 C506.11,186.54 505.44,187.04 504.96,186.78 C504.28,186.39 504.05,185.34 503.31,185.12 C502.24,184.83 500.99,185.61 500.00,185.12 C499.11,184.68 499.14,183.24 498.35,182.64 C497.44,181.97 494.59,181.69 494.21,180.99 C493.83,180.27 492.26,180.32 491.74,180.17 C491.51,180.10 491.23,179.82 490.91,179.34 C490.91,179.34 491.74,178.51 491.74,178.51 C494.36,179.02 495.79,179.69 496.74,181.02 C497.75,182.37 500.58,183.10 501.65,183.47 C501.92,183.56 513.66,188.97 514.05,189.26 C514.68,189.71 516.64,191.73 518.18,192.56 C525.41,196.51 530.89,200.32 533.08,201.23 C534.05,201.62 535.83,201.51 536.36,201.65 C536.74,201.76 543.41,206.35 544.63,206.61 C545.17,206.73 546.89,206.73 548.85,207.74 C552.62,209.69 562.19,215.48 562.81,215.70 C566.57,216.64 570.37,219.18 571.93,219.78 C574.81,220.82 582.28,223.69 582.64,223.97 C583.26,224.44 584.31,225.63 587.60,227.27 C589.23,228.10 590.43,227.83 590.91,228.10 C591.59,228.48 591.87,229.39 592.56,229.75 C593.05,230.01 594.35,229.77 595.04,230.58 C595.32,230.90 598.76,234.30 599.17,234.71 C597.66,234.70 593.54,234.69 592.56,234.71 C589.55,234.76 589.07,234.68 588.43,233.88 C587.95,233.27 586.06,231.43 585.95,231.40 C585.41,231.30 583.91,231.30 582.32,230.24 C580.37,228.96 576.22,227.45 573.26,225.83 C563.17,220.21 561.33,218.26 561.16,218.18 C560.13,217.69 556.61,216.89 555.37,215.70 C555.09,215.44 554.93,214.96 554.55,214.88 C554.01,214.74 551.90,214.72 551.24,214.05 C550.81,213.62 549.59,211.33 548.76,210.74 C548.08,210.27 543.51,208.55 542.98,208.26 C542.21,207.87 538.64,205.27 538.02,204.96 C537.38,204.64 533.74,203.62 533.06,203.31 C531.88,202.76 525.51,198.12 523.97,197.52 C523.00,197.14 519.52,196.26 519.01,195.87 C517.77,194.63 516.11,193.07 514.31,192.66 C512.63,192.26 510.57,191.25 508.82,189.95 C506.92,188.52 505.45,188.69 504.96,188.43 C504.27,188.07 503.99,187.16 503.31,186.78 C502.82,186.51 502.18,186.94 501.65,186.78 C500.48,186.41 499.51,185.52 498.35,185.12 C497.82,184.95 496.42,185.05 495.87,184.30 C495.87,184.30 496.69,183.47 496.69,183.47 C497.84,184.85 505.67,188.83 508.26,190.91 C509.92,192.56 512.50,194.95 517.97,198.31 C519.92,199.49 522.99,201.58 523.14,201.65 C523.30,201.72 526.17,202.02 527.27,202.48 C529.01,203.20 536.26,209.03 536.36,209.09 C540.11,211.27 544.10,211.84 545.45,212.40 C546.48,212.82 553.65,217.41 556.70,218.97 C559.70,220.50 573.64,225.97 577.08,227.81 C587.47,233.49 597.79,237.51 600.10,238.00 C602.78,238.58 608.17,242.01 612.11,242.83 C614.18,243.26 617.31,244.37 619.44,245.45 C621.13,246.31 624.78,248.75 624.79,248.76 C624.85,248.79 633.25,250.31 636.05,251.58 C639.67,253.24 646.58,255.45 648.61,256.33 C650.28,257.05 654.61,257.80 656.44,258.58 C658.08,259.28 659.78,259.91 661.74,260.50 C663.74,261.10 666.13,261.00 666.94,261.16 C667.42,261.25 671.62,263.25 672.73,263.64 C673.61,263.95 679.43,264.99 681.82,266.12 C682.09,266.24 685.96,268.32 686.78,268.60 C687.58,268.86 693.75,269.82 696.69,271.07 C697.91,271.58 700.23,272.67 700.83,272.73 C701.92,272.83 705.02,272.79 706.94,273.39 C708.91,273.99 711.06,274.82 712.27,275.40 C713.50,275.99 716.26,275.90 717.36,276.03 C717.60,276.06 725.85,279.64 728.05,279.48 C730.04,279.33 734.15,281.23 735.98,281.16 C736.37,281.15 740.67,280.73 741.32,280.99 C742.04,281.29 742.24,282.39 742.98,282.64 C744.02,283.01 745.21,282.40 746.28,282.64 C747.48,282.92 748.41,283.92 749.59,284.30 C750.43,284.56 754.66,284.37 756.20,284.30 C754.60,284.46 753.50,284.46 752.89,284.30 C751.70,283.98 750.76,283.01 749.59,282.64 C748.80,282.40 746.26,282.55 745.45,281.82 C745.17,281.56 745.00,281.10 744.63,280.99 C744.10,280.83 736.85,279.60 736.36,279.34 C735.68,278.96 734.28,277.39 732.23,276.86 C728.58,275.90 721.71,273.98 720.66,273.55 C720.34,273.43 717.43,271.32 716.53,271.07 C715.77,270.87 711.88,271.09 711.57,271.07 C710.10,270.99 703.17,267.84 701.30,266.92 C699.78,266.18 697.52,266.12 695.87,266.12 C695.63,266.09 687.17,262.41 685.11,262.67 C683.64,262.87 681.36,261.48 680.17,261.16 C680.05,261.12 676.21,261.16 674.76,260.83 C671.28,260.04 668.69,258.06 667.77,257.85 C667.27,257.74 664.40,257.96 663.64,257.85 C661.86,257.61 659.28,256.33 658.68,256.20 C658.14,256.07 656.57,256.12 655.00,255.36 C653.44,254.60 651.20,254.79 650.41,254.55 C649.24,254.18 648.29,253.23 647.11,252.89 C645.99,252.57 642.58,253.06 642.15,252.89 C641.00,252.46 637.96,250.84 635.85,250.25 C633.72,249.63 631.36,249.84 630.58,249.59 C629.40,249.21 628.45,248.28 627.27,247.93 C626.43,247.68 621.53,248.19 620.66,247.93 C619.48,247.59 618.52,246.69 617.36,246.28 C616.80,246.28 616.25,246.28 615.70,246.28 C614.54,245.88 613.58,244.99 612.40,244.63 C611.51,244.36 607.31,244.56 605.79,244.63 C606.80,244.39 609.55,246.00 610.74,246.28 C611.85,246.28 612.95,246.28 614.05,246.28 C615.15,246.83 616.25,247.38 617.36,247.93 C618.46,247.93 619.56,247.93 620.66,247.93 C621.76,248.48 622.87,249.04 623.97,249.59 C625.07,249.59 626.17,249.59 627.27,249.59 C628.47,249.87 629.43,250.80 630.58,251.24 C631.09,251.43 632.67,251.30 634.57,252.07 C636.46,252.83 639.43,252.60 640.50,252.89 C641.60,253.44 642.70,253.99 643.80,254.55 C644.86,254.84 647.98,254.60 650.47,255.35 C653.90,256.34 658.24,256.07 660.33,257.02 C660.72,257.21 668.03,259.65 669.76,259.43 C671.36,259.24 678.35,262.71 680.17,262.81 C681.27,262.86 682.41,262.52 683.47,262.81 C684.66,263.13 685.60,264.11 686.78,264.46 C687.57,264.71 692.74,264.20 693.39,264.46 C694.11,264.76 694.36,265.74 695.04,266.12 C695.52,266.39 696.15,266.01 696.69,266.12 C697.08,266.19 698.28,267.61 699.17,267.77 C699.67,267.86 702.88,267.50 703.31,267.77 C703.97,268.18 704.23,269.15 704.96,269.42 C705.78,269.74 709.68,269.24 709.92,269.42 C710.54,269.89 710.84,270.81 711.57,271.07 C712.03,271.25 715.62,271.03 716.53,271.07 C714.03,271.07 708.18,271.06 704.84,271.05 C700.55,271.00 696.81,271.17 693.94,270.23 C693.73,270.16 678.78,265.39 678.51,265.29 C676.82,264.68 670.79,264.27 666.12,262.81 C664.93,262.44 660.06,260.50 659.50,260.33 C658.87,260.14 656.05,259.73 655.37,259.50 C647.25,256.02 636.30,254.07 635.54,253.72 C634.63,253.30 631.59,251.34 629.75,251.24 C628.93,251.20 628.01,251.61 627.27,251.24 C626.57,250.89 626.35,249.87 625.62,249.59 C624.77,249.25 621.05,249.74 620.66,249.59 C620.19,249.41 614.99,246.45 614.05,246.28 C612.96,246.09 611.78,246.66 610.74,246.28 C610.01,246.02 609.81,244.94 609.09,244.63 C608.65,244.43 603.24,244.79 602.48,244.63 C602.21,244.57 601.48,243.53 600.83,242.98 C603.36,243.02 605.67,242.88 605.79,242.98 C606.40,243.45 606.70,244.39 607.44,244.63 C608.48,244.98 609.64,244.55 610.74,244.63 C610.95,244.64 612.69,246.54 613.22,247.11 C613.96,247.92 619.01,249.59 620.66,249.59 C622.31,250.41 627.01,251.64 628.93,252.89 C629.25,253.10 630.12,254.00 631.40,254.55 C635.19,256.09 639.88,256.55 641.28,257.34 C643.07,258.34 645.34,259.41 646.28,259.50 C647.10,259.59 649.16,259.59 650.68,260.67 C652.93,262.25 658.28,263.04 659.50,263.64 C659.64,263.70 662.66,265.70 663.64,266.12 C664.23,266.37 671.20,268.32 675.95,270.20 C677.98,271.00 680.17,271.00 680.99,271.07 C682.88,271.23 685.92,273.04 686.78,273.55 C687.96,274.27 690.91,274.38 692.56,274.38 C694.22,274.50 697.52,276.03 699.17,276.86 C700.79,277.55 704.69,277.62 705.79,277.69 C706.84,277.75 716.16,282.57 716.53,282.64 C716.74,282.69 720.58,282.63 721.86,282.88 C723.31,283.14 728.94,285.87 731.40,285.95 C731.54,285.95 734.84,285.81 735.54,285.95 C736.25,286.10 740.84,288.05 743.80,288.43 C746.67,288.79 753.13,289.73 756.72,291.41 C758.86,292.42 760.62,292.45 761.16,292.56 C761.20,292.57 764.25,294.06 765.29,294.21 C766.32,294.38 770.49,294.02 771.07,294.21 C772.25,294.59 773.20,295.52 774.38,295.87 C775.22,296.12 780.17,295.61 780.99,295.87 C782.17,296.22 783.11,297.20 784.30,297.52 C784.89,297.68 785.99,297.68 787.60,297.52 C779.67,297.68 773.26,296.02 772.73,295.87 C772.50,295.80 769.50,293.77 768.60,293.39 C767.72,293.02 765.10,292.70 764.46,292.56 C762.72,292.19 761.54,290.99 761.16,290.91 C760.35,290.73 758.01,290.81 755.48,289.75 C748.90,287.07 745.87,286.36 743.80,285.95 C743.10,285.74 735.49,282.46 732.65,281.95 C731.72,281.78 728.32,281.31 727.27,280.99 C725.98,280.60 720.94,278.60 720.66,278.51 C719.92,278.28 714.98,277.19 714.05,276.86 C712.87,276.45 708.86,274.45 708.26,274.38 C707.17,274.25 706.03,274.66 704.96,274.38 C703.77,274.07 702.83,273.10 701.65,272.73 C700.87,272.48 698.59,272.69 697.18,272.07 C695.77,271.48 692.29,269.54 691.74,269.42 C690.66,269.19 689.51,269.64 688.43,269.42 C687.60,269.26 682.64,266.28 681.82,266.12 C680.74,265.90 679.58,266.38 678.51,266.12 C677.31,265.83 676.36,264.89 675.21,264.46 C674.69,264.27 672.98,264.35 671.05,263.32 C669.34,262.43 667.29,261.21 666.94,261.16 C666.55,261.09 662.85,261.45 661.98,261.16 C660.33,260.33 655.64,259.10 653.72,257.85 C653.39,257.64 652.09,256.31 651.24,256.20 C650.42,256.10 649.55,256.43 648.76,256.20 C647.58,255.85 646.61,254.96 645.45,254.55 C644.94,254.36 643.27,254.44 641.32,253.40 C639.35,252.38 637.59,251.27 637.19,251.24 C636.09,251.16 634.93,251.60 633.88,251.24 C633.15,250.98 632.89,250.00 632.23,249.59 C631.76,249.30 631.10,249.76 630.58,249.59 C629.41,249.19 628.47,248.23 627.27,247.93 C626.20,247.67 625.07,248.02 623.97,247.93 C623.78,247.92 622.02,246.03 621.49,245.45 C620.79,244.66 620.36,244.55 619.01,244.63 C620.16,244.56 621.24,244.72 623.02,245.31 C624.84,245.91 633.47,249.35 633.88,249.59 C634.56,249.98 637.12,251.66 638.02,252.07 C646.31,255.77 649.92,255.95 650.41,256.20 C651.11,256.55 653.69,259.07 655.37,259.50 C655.91,259.64 656.50,259.33 657.02,259.50 C658.68,260.33 661.16,261.16 661.98,261.16 C663.15,261.56 664.11,262.44 665.29,262.81 C665.82,262.97 666.47,262.52 666.94,262.81 C667.60,263.23 667.86,264.21 668.60,264.46 C669.64,264.82 670.81,264.35 671.90,264.46 C672.20,264.49 672.90,265.56 673.55,266.12 C670.80,266.21 670.19,266.11 669.42,265.29 C669.07,264.94 660.55,261.82 658.34,260.73 C656.59,259.86 653.03,256.90 650.34,256.14 C648.35,255.59 646.32,254.21 645.45,253.72 C645.11,253.53 638.29,251.27 634.83,249.64 C631.50,248.05 620.18,241.77 618.20,241.52 C616.59,241.35 614.41,239.99 613.22,239.67 C612.43,239.45 610.35,239.59 609.20,238.57 C607.40,236.97 604.10,235.69 600.23,234.74 C598.02,234.19 596.45,232.75 595.87,232.23 C595.05,231.50 593.09,231.57 592.56,231.40 C591.94,231.22 586.52,228.26 585.95,228.10 C585.42,227.95 584.82,228.28 584.30,228.10 C583.13,227.70 582.17,226.82 580.99,226.45 C580.47,226.28 579.83,226.69 579.34,226.45 C578.64,226.11 576.03,223.54 574.38,223.14 C573.84,223.01 573.21,223.41 572.73,223.14 C572.05,222.76 571.77,221.84 571.07,221.49 C570.52,221.49 569.97,221.49 569.42,221.49 C568.72,221.14 568.45,220.22 567.77,219.83 C567.29,219.56 564.94,219.51 562.81,218.18 C562.61,218.06 561.16,216.53 560.33,215.70 C559.60,214.89 558.38,215.04 557.85,214.88 C557.37,214.73 556.27,214.18 554.55,213.22 C555.66,213.15 558.72,212.96 559.50,213.22 C561.16,214.05 564.86,214.98 566.06,215.97 C568.66,218.15 573.80,220.37 574.38,220.66 C574.93,220.93 580.46,222.34 581.82,223.97 C581.94,224.12 582.21,224.39 582.64,224.79 C582.04,224.23 581.15,223.21 580.99,223.14 C580.90,223.10 577.77,222.67 576.86,222.31 C576.00,221.98 573.38,220.19 572.73,219.83 C572.19,219.54 570.07,217.79 569.42,217.36 C568.90,217.01 563.60,215.39 561.98,214.05 C561.12,213.33 558.66,213.38 557.85,213.22 C557.29,213.11 544.95,206.70 544.63,206.61 C544.10,206.47 543.47,206.86 542.98,206.61 C542.28,206.27 540.47,204.34 538.02,203.31 C534.33,201.76 531.88,201.93 531.40,201.65 C530.73,201.26 530.44,200.36 529.75,200.00 C529.27,199.74 527.56,199.83 525.59,198.35 C523.59,196.85 522.02,196.84 521.49,196.69 C520.91,196.54 515.46,193.54 514.88,193.39 C514.34,193.24 513.72,193.63 513.22,193.39 C512.53,193.04 511.35,191.58 508.26,190.08 C507.46,189.69 502.24,186.93 501.65,186.78 C501.12,186.63 499.55,186.70 499.17,185.95 C498.74,185.03 495.73,182.18 495.04,181.82 C494.55,181.57 492.69,181.61 490.08,180.17 C493.61,180.70 497.03,182.38 498.35,183.47 C498.94,183.98 499.29,184.80 500.00,185.12 C500.50,185.35 501.16,184.88 501.65,185.12 C502.20,185.67 502.75,186.23 503.31,186.78 C503.86,186.78 504.41,186.78 504.96,186.78 C505.51,187.33 506.06,187.88 506.61,188.43 C507.10,188.68 507.76,188.22 508.26,188.43 C509.72,189.07 512.05,193.26 513.22,193.39 C513.77,193.45 516.62,193.87 518.18,195.04 C518.80,195.51 519.13,196.37 519.83,196.69 C520.33,196.93 521.60,196.71 522.31,197.52 C523.14,198.35 524.67,199.98 524.79,200.00 C525.33,200.11 526.62,200.04 527.27,200.83 C527.42,201.01 527.70,201.28 528.10,201.65 C527.29,201.81 526.74,201.81 526.45,201.65 C525.76,201.28 525.48,200.36 524.79,200.00 C524.31,199.74 523.03,199.98 522.31,199.17 C519.16,195.64 513.63,193.03 513.22,192.56 C512.82,192.09 511.76,190.20 509.92,189.26 C507.91,188.21 505.08,185.14 503.31,184.30 C498.35,181.82 497.40,180.50 496.69,180.17 C496.20,179.92 494.97,180.16 494.21,179.34 C493.88,178.97 493.06,178.15 491.74,176.86 C495.24,179.08 498.75,180.55 499.17,180.99 C500.61,182.47 505.34,184.92 509.96,186.58 C512.95,187.68 516.31,190.67 518.18,191.74 C520.81,193.21 526.03,194.63 528.10,195.04 C530.35,195.81 532.35,198.03 533.06,198.35 C533.56,198.57 534.22,198.10 534.71,198.35 C535.41,198.70 535.68,199.63 536.36,200.00 C536.85,200.26 538.34,200.08 538.84,200.83 C538.84,200.83 538.02,201.65 538.02,201.65 C536.80,201.33 533.53,200.45 533.06,200.00 C532.23,198.76 530.87,197.00 528.56,196.15 C525.56,195.05 520.82,192.75 520.66,192.56 C520.26,192.10 519.44,190.51 517.37,189.60 C514.57,188.36 513.43,186.64 511.57,186.78 C510.29,184.71 509.69,184.04 508.26,183.47 C505.98,182.56 504.00,180.51 503.31,180.17 C503.05,180.04 502.50,180.04 501.65,180.17 C500.38,178.10 499.76,177.42 498.35,176.86 C494.99,175.50 490.08,172.31 488.43,171.07 C487.34,170.43 483.67,168.77 483.47,168.60 C482.89,168.08 481.38,166.72 480.17,166.94 C481.77,166.95 486.16,166.99 486.78,166.94 C488.17,166.83 490.54,168.31 491.74,168.60 C492.80,168.86 493.94,168.51 495.04,168.60 C495.23,168.61 498.14,171.88 498.35,171.90 C499.45,171.98 500.61,171.54 501.65,171.90 C502.39,172.15 502.63,173.17 503.31,173.55 C503.79,173.82 504.46,173.32 504.96,173.55 C505.65,173.91 505.92,174.84 506.61,175.21 C507.10,175.47 508.38,175.22 509.09,176.03 C509.62,176.60 511.36,178.50 511.57,178.51 C512.67,178.59 513.83,178.16 514.88,178.51 C515.61,178.76 515.85,179.78 516.53,180.17 C517.01,180.43 517.69,179.93 518.18,180.17 C518.88,180.52 519.15,181.45 519.83,181.82 C520.32,182.08 521.59,181.83 522.31,182.64 C522.56,182.92 523.11,183.47 523.97,184.30 C523.38,184.98 522.46,185.51 521.49,185.12 C520.35,184.66 519.36,183.83 518.18,183.47 C517.66,183.31 517.01,183.73 516.53,183.47 C515.85,183.09 515.57,182.17 514.88,181.82 C514.33,181.82 513.77,181.82 513.22,181.82 C512.67,181.27 512.12,180.72 511.57,180.17 C511.08,179.92 510.42,180.38 509.92,180.17 C509.20,179.85 507.61,178.02 505.05,176.81 C499.15,174.03 493.86,170.40 493.39,170.25 C492.86,170.08 491.14,170.09 488.51,168.68 C485.53,167.08 479.37,164.13 478.51,163.64 C476.06,162.23 474.08,162.16 473.55,161.98 C472.38,161.59 469.56,160.09 468.60,160.33 C467.37,158.32 466.26,157.12 465.29,157.02 C463.50,156.84 458.33,154.93 457.85,154.55 C457.55,154.30 455.11,152.47 453.72,152.07 C453.19,151.92 452.59,152.24 452.07,152.07 C450.96,151.52 449.86,150.96 448.76,150.41 C448.24,150.23 446.28,150.32 445.45,149.59 C444.87,149.07 443.80,147.93 441.32,147.11 C440.15,146.73 439.22,145.53 438.84,145.45 C438.03,145.29 435.94,145.39 434.71,144.63 C433.84,144.10 431.38,143.32 430.58,142.98 C430.01,142.73 427.80,142.30 427.27,142.15 C426.90,142.05 425.68,140.63 424.79,140.50 C423.98,140.36 420.78,140.40 419.83,139.67 C418.91,138.96 418.33,137.84 417.36,137.19 C416.87,136.86 414.77,137.47 414.05,137.19 C412.90,136.75 411.91,135.92 410.74,135.54 C410.22,135.36 408.69,135.43 407.52,134.39 C406.34,133.36 404.48,132.33 403.31,132.23 C402.48,132.17 401.62,132.47 400.83,132.23 C399.65,131.88 398.69,130.98 397.52,130.58 C396.97,130.58 396.42,130.58 395.87,130.58 C394.71,130.16 393.76,129.22 392.56,128.93 C391.49,128.66 390.34,129.13 389.26,128.93 C388.45,128.77 383.26,125.78 382.64,125.62 C382.11,125.48 381.46,125.91 380.99,125.62 C380.33,125.21 380.07,124.24 379.34,123.97 C378.51,123.65 374.61,124.15 374.38,123.97 C373.76,123.49 373.47,122.55 372.73,122.31 C371.68,121.96 370.52,122.39 369.42,122.31 C369.21,122.30 366.33,119.02 366.12,119.01 C365.02,118.93 363.85,119.39 362.81,119.01 C362.08,118.74 361.90,117.60 361.16,117.36 C360.11,117.02 358.90,117.70 357.85,117.36 C357.11,117.10 356.94,115.95 356.20,115.70 C355.15,115.36 353.95,116.02 352.89,115.70 C352.15,115.46 351.92,114.43 351.24,114.05 C350.69,114.05 350.14,114.05 349.59,114.05 C348.90,113.68 348.66,112.68 347.93,112.40 C347.11,112.08 343.21,112.58 342.98,112.40 C342.34,111.94 342.05,111.03 341.32,110.74 C340.71,110.49 335.28,111.00 334.71,110.74 C334.16,110.19 333.61,109.64 333.06,109.09 C332.72,108.95 320.18,109.23 319.83,109.09 C319.28,108.54 318.73,107.99 318.18,107.44 C318.17,107.43 261.43,107.46 259.04,107.30 C257.61,107.20 254.89,108.71 253.72,109.09 C253.02,109.32 242.12,109.06 238.30,108.92 C236.55,108.89 234.51,109.30 232.78,109.94 C230.83,110.71 229.39,110.45 228.93,110.74 C228.26,111.15 228.00,112.11 227.27,112.40 C226.66,112.65 221.23,112.14 220.66,112.40 C219.94,112.70 219.73,113.77 219.01,114.05 C218.23,114.37 214.28,113.87 214.05,114.05 C213.43,114.52 213.14,115.46 212.40,115.70 C211.35,116.05 210.18,115.54 209.09,115.70 C208.43,115.80 206.47,117.92 205.79,118.18 C204.73,118.60 202.02,119.16 201.65,119.83 C201.24,120.55 199.71,120.55 199.17,120.66 C196.59,121.22 191.23,125.58 189.26,126.45 C187.85,127.05 186.65,128.58 185.95,128.93 C185.66,129.07 185.11,129.07 184.30,128.93 C183.69,130.06 182.82,132.08 182.64,132.23 C182.18,132.64 180.97,133.08 180.17,134.71 C179.90,135.24 178.19,136.01 177.69,136.36 C175.17,138.09 169.73,147.01 169.68,147.11 C168.69,149.07 168.86,150.76 168.60,151.24 C168.22,151.92 167.36,152.24 166.94,152.89 C166.47,153.63 165.88,155.93 164.81,157.37 C164.09,158.32 163.70,159.03 163.64,159.50 C163.49,160.60 164.00,161.77 163.64,162.81 C163.38,163.55 162.32,163.76 161.98,164.46 C161.63,165.21 161.94,167.39 161.18,169.25 C160.18,171.87 160.35,180.01 160.31,182.37 C160.24,186.39 160.11,193.94 160.17,198.16 C160.20,200.34 160.65,201.97 161.48,202.89 C163.03,204.55 166.50,211.51 167.77,213.22 C170.36,216.68 178.09,222.71 178.51,223.14 C178.93,223.57 182.08,227.78 186.78,231.40 C187.89,232.26 195.86,238.08 199.20,240.49 C202.07,242.52 207.15,244.88 208.80,246.27 C211.80,248.80 223.99,255.82 229.63,258.21 C241.25,263.05 248.12,267.10 255.31,269.82 C278.87,278.64 290.85,283.76 292.56,284.30 C294.16,284.79 300.73,285.81 303.83,286.83 C310.74,289.26 324.59,293.65 331.16,295.10 C333.48,295.64 339.79,298.51 342.36,298.97 C342.58,299.01 352.97,300.71 354.44,301.01 C356.51,301.44 364.86,304.31 367.32,304.81 C372.39,305.81 385.28,306.65 393.32,308.34 C397.53,309.24 414.53,313.59 419.51,314.38 C424.31,315.12 441.17,316.41 445.88,317.47 C452.46,319.05 500.26,327.36 504.30,327.56 C508.27,327.75 550.72,332.01 564.96,333.69 C575.80,334.69 584.16,336.32 592.36,336.76 C603.75,337.17 614.91,337.00 618.34,337.51 C627.13,338.95 639.97,338.70 643.49,339.09 C644.89,339.25 666.85,342.32 671.99,342.21 C679.38,341.89 690.86,344.11 699.70,343.89 C708.70,343.58 719.01,344.63 726.45,345.45 C729.99,345.70 736.81,345.30 737.44,345.29 C739.00,345.27 747.31,346.88 749.59,347.11 C752.11,347.35 758.74,347.11 761.73,347.00 C767.42,346.80 777.29,349.01 785.68,348.82 C803.74,348.78 830.32,348.75 838.84,348.76 C832.51,348.77 817.63,348.81 809.09,348.83 C807.27,348.83 799.20,348.84 798.35,347.93 C797.56,347.12 796.92,346.97 793.93,347.02 C790.75,347.06 787.96,347.26 787.60,347.11 C786.36,346.28 784.67,345.27 782.27,345.31 C777.97,345.31 769.89,345.39 766.12,345.45 C763.35,345.52 758.21,345.63 753.92,344.63 C749.60,343.62 745.73,343.84 743.37,343.82 C737.34,343.77 731.50,344.00 730.58,343.80 C729.72,343.61 726.10,342.34 724.79,342.15 C723.56,341.97 669.07,342.13 665.32,342.31 C663.97,342.34 657.05,340.43 653.50,340.41 C644.41,340.30 616.25,340.49 610.74,340.50 C616.50,340.54 620.15,340.35 620.66,340.50 C621.84,340.84 624.42,342.30 626.74,342.24 C626.94,342.24 664.18,341.91 665.29,342.15 C666.29,342.36 674.43,344.02 679.51,343.97 C683.14,343.89 693.88,343.61 694.52,343.62 C695.97,343.64 712.74,345.70 721.85,345.45 C728.14,345.33 737.14,347.11 743.51,347.16 C760.66,347.16 801.06,346.98 806.23,347.27 C814.19,347.82 830.58,348.76 838.70,348.94 C845.87,348.87 860.13,348.51 864.26,349.24 C872.31,350.66 881.01,350.38 893.50,350.42 C899.52,350.43 903.78,350.27 904.96,350.41 C906.02,350.55 915.24,352.21 917.48,352.25 C917.79,352.26 954.10,351.91 962.98,351.91 C964.68,351.92 971.54,352.00 975.18,352.89 C979.43,353.93 997.95,353.78 1005.56,353.69 C1006.06,353.69 1006.69,353.70 1007.44,353.72 C1004.90,353.67 1002.61,353.81 1002.48,353.72 C1001.83,353.29 1001.49,352.47 1000.83,352.07 C1000.57,351.90 997.59,352.24 996.69,352.07 C995.63,351.88 994.28,350.43 994.21,350.41 C993.17,350.20 989.57,350.53 989.26,350.41 C988.42,350.12 983.31,347.30 982.64,347.11 C981.85,346.87 978.18,347.21 977.69,347.11 C977.08,346.99 970.03,343.91 969.42,343.80 C969.38,343.79 965.48,344.08 964.46,343.80 C963.40,343.52 960.48,341.38 960.33,341.32 C960.30,341.31 950.83,338.51 947.16,337.30 C941.76,335.58 937.52,335.54 935.48,334.87 C927.75,332.37 885.02,321.66 878.84,320.39 C877.28,320.07 875.27,318.61 874.38,318.18 C872.98,317.50 869.42,317.36 867.77,317.36 C867.10,317.31 857.92,314.77 853.91,314.21 C848.00,313.47 845.04,312.40 842.98,311.57 C842.18,311.35 832.94,310.07 829.74,308.90 C825.29,307.16 820.40,305.92 815.47,305.31 C812.56,305.02 807.44,304.43 804.05,303.42 C800.78,302.43 794.55,300.59 792.36,300.65 C788.77,300.76 783.08,300.01 780.17,299.17 C778.36,298.65 770.25,295.56 766.94,295.66 C760.49,295.88 758.29,295.67 754.00,294.39 C750.85,293.43 739.54,290.96 738.84,290.91 C735.02,290.91 716.33,287.38 713.04,287.44 C709.99,287.60 704.31,287.82 701.57,286.78 C698.81,285.72 693.33,286.09 692.56,285.95 C692.45,285.93 688.94,284.51 687.60,284.30 C685.64,283.99 674.36,284.57 673.55,284.30 C671.90,283.47 669.60,282.41 668.60,282.64 C670.83,282.70 686.87,282.42 694.20,283.33 C697.95,283.81 704.35,284.91 707.13,285.58 C708.64,285.95 729.49,287.64 730.71,287.86 C734.14,288.50 744.61,289.89 745.45,290.08 C749.40,290.98 755.67,290.85 759.86,290.78 C764.90,290.73 772.55,291.23 776.17,292.11 C778.02,292.56 782.06,292.57 787.76,293.48 C800.05,295.49 809.89,296.38 817.36,295.87 C819.49,295.73 825.41,297.69 828.08,297.52 C830.07,297.40 837.90,299.35 841.70,299.36 C845.39,299.35 851.28,299.05 853.30,300.00 C855.38,300.98 861.05,300.49 861.98,300.83 C863.14,301.24 866.11,302.75 868.43,302.65 C871.12,302.53 873.33,302.40 874.76,302.31 C876.21,302.22 879.00,303.74 880.17,304.13 C880.84,304.36 891.72,304.13 891.74,304.13 C892.39,304.56 892.70,305.42 893.39,305.79 C893.68,305.95 894.23,305.95 895.04,305.79 C888.45,305.78 869.19,305.96 868.60,305.79 C866.94,304.96 864.46,303.88 861.98,304.13 C860.33,304.30 859.23,304.30 858.68,304.13 C857.49,303.79 856.54,302.86 855.37,302.48 C854.53,302.21 845.78,302.66 844.63,301.65 C844.34,301.39 844.18,300.93 843.80,300.83 C843.27,300.67 842.01,300.80 840.03,300.01 C837.28,298.95 833.20,299.02 827.74,299.34 C826.27,299.43 823.48,297.91 822.31,297.52 C820.24,296.84 803.67,297.68 803.31,297.52 C801.65,296.69 799.42,295.62 798.45,295.70 C796.52,295.86 787.77,296.12 785.95,295.87 C784.43,295.65 777.51,294.02 774.08,294.13 C771.07,294.24 750.01,294.38 749.59,294.21 C748.86,293.93 748.62,292.94 747.93,292.56 C747.46,292.30 744.17,292.49 742.98,292.56 C749.17,292.56 764.99,292.78 768.60,293.39 C771.50,293.89 778.76,296.04 780.47,295.98 C783.18,295.86 797.62,297.36 800.83,297.52 C801.49,297.61 808.68,299.66 809.64,299.97 C814.93,301.66 823.70,300.67 823.97,300.83 C824.63,301.24 824.97,302.05 825.62,302.48 C825.79,302.59 832.29,302.47 833.88,302.48 C831.31,302.43 829.12,302.55 828.93,302.48 C828.34,302.27 823.26,299.39 822.31,299.17 C821.16,298.90 817.71,299.36 817.36,299.17 C816.47,298.72 814.27,297.27 812.71,297.52 C811.67,297.69 811.02,297.69 810.74,297.52 C810.07,297.12 809.81,296.16 809.09,295.87 C808.49,295.62 803.05,296.12 802.48,295.87 C801.76,295.56 801.56,294.49 800.83,294.21 C799.80,293.82 796.73,294.16 795.04,293.41 C792.57,292.36 787.78,292.65 785.75,291.74 C783.41,290.67 776.91,291.17 776.03,290.91 C774.85,290.56 773.91,289.58 772.73,289.26 C771.84,289.00 766.03,289.51 765.29,289.26 C764.35,288.94 763.76,287.88 762.81,287.60 C761.75,287.30 760.58,287.86 759.50,287.60 C758.31,287.32 757.38,286.31 756.20,285.95 C755.37,285.70 750.41,286.20 749.59,285.95 C748.40,285.61 747.45,284.68 746.28,284.30 C744.68,283.78 738.25,284.47 738.02,284.30 C737.40,283.82 737.10,282.90 736.36,282.64 C735.91,282.48 734.80,282.48 733.06,282.64 C739.74,282.63 754.90,282.61 763.37,282.60 C767.13,282.56 771.78,284.40 773.84,284.38 C779.88,284.35 784.99,284.08 785.95,284.30 C786.43,284.40 790.88,285.83 791.74,285.95 C792.50,286.06 796.12,285.85 796.69,285.95 C797.34,286.06 800.34,287.47 800.83,287.60 C801.67,287.83 814.94,287.49 817.36,288.43 C817.93,288.65 819.19,289.29 821.30,289.17 C823.47,289.05 828.64,291.09 832.08,291.09 C834.13,291.09 842.21,290.77 844.50,291.74 C846.15,292.44 848.48,292.75 850.41,292.56 C851.74,292.42 854.20,293.83 855.37,294.21 C855.78,294.35 869.42,294.21 870.25,294.21 C864.54,294.17 860.68,294.37 860.33,294.21 C859.62,293.91 859.40,292.85 858.68,292.56 C857.85,292.23 854.11,292.73 853.72,292.56 C852.58,292.08 851.60,291.24 850.41,290.91 C849.55,290.66 844.62,291.16 843.80,290.91 C842.15,290.08 839.79,289.05 836.81,289.23 C834.23,289.37 832.01,289.16 830.84,288.60 C827.83,287.13 823.02,285.75 820.72,285.81 C820.22,285.82 817.84,286.07 817.36,285.95 C817.28,285.93 814.09,284.45 813.22,284.30 C812.64,284.19 809.65,284.40 809.09,284.30 C806.61,283.47 801.96,282.27 797.52,282.64 C795.82,282.79 794.72,282.79 794.21,282.64 C793.03,282.30 792.08,281.38 790.91,280.99 C790.59,280.89 776.48,280.96 776.03,280.99 C774.64,281.10 772.26,279.67 771.07,279.34 C770.46,279.17 754.31,279.34 751.24,279.34 C756.46,279.38 761.40,279.25 763.80,280.19 C765.40,280.83 777.70,282.51 778.51,282.64 C779.41,282.80 780.62,284.19 780.99,284.30 C781.52,284.46 783.32,284.40 785.19,285.13 C787.09,285.86 801.94,287.51 804.04,288.58 C805.67,289.39 814.13,289.21 815.87,289.57 C816.79,289.77 818.74,290.85 819.01,290.91 C819.51,291.01 824.39,290.92 826.63,290.89 C829.48,290.82 833.17,292.06 837.82,293.05 C842.09,293.93 847.62,294.53 850.97,294.33 C853.14,294.19 863.33,294.09 863.64,294.21 C864.56,294.58 865.21,295.46 866.12,295.87 C866.63,296.10 875.56,295.84 879.03,295.70 C881.43,295.66 886.39,297.59 889.41,297.58 C906.72,297.58 944.24,297.68 944.63,297.52 C945.35,297.22 945.55,296.14 946.28,295.87 C946.71,295.71 947.81,295.71 949.59,295.87 C944.58,295.97 940.68,295.72 938.84,295.04 C936.31,294.10 929.25,294.16 928.10,294.21 C926.93,294.26 922.65,294.41 921.49,294.21 C920.17,294.00 915.96,292.60 915.70,292.56 C914.88,292.45 912.72,292.53 911.53,292.10 C908.95,291.19 902.49,290.74 897.76,290.84 C893.39,290.97 886.47,291.02 883.21,290.11 C879.66,289.12 874.49,289.10 869.92,289.20 C865.47,289.28 862.88,289.28 861.98,289.26 C877.92,289.27 907.55,289.28 908.26,289.26 C911.18,289.19 912.44,289.84 912.91,290.08 C915.13,291.23 932.87,290.77 933.06,290.91 C933.69,291.37 933.98,292.28 934.71,292.56 C935.13,292.72 956.53,292.55 962.81,292.56 C932.40,292.56 862.20,292.70 861.98,292.56 C861.34,292.13 861.06,291.18 860.33,290.91 C859.87,290.74 856.28,290.95 855.37,290.91 C868.11,290.94 898.65,290.99 916.44,291.02 C924.56,290.88 938.90,290.53 945.81,289.58 C948.81,289.16 956.09,287.52 957.02,287.60 C962.12,288.04 965.45,287.41 971.43,285.21 C975.39,283.60 980.59,281.49 981.82,280.99" fill="none" stroke="rgb(183, 186, 219)" stroke-width="148.60" stroke-opacity="1.00" stroke-linejoin="round"/>
<path d="M1514.05,251.24 C1511.03,251.20 1503.60,251.10 1499.75,251.12 C1495.41,251.17 1489.26,253.16 1486.32,253.76 C1480.47,255.33 1466.79,258.50 1460.37,261.09 C1457.63,262.18 1446.04,264.53 1435.79,267.04 C1432.45,267.88 1428.32,269.70 1426.53,270.30 C1424.24,271.07 1408.46,274.63 1406.61,275.21 C1405.26,275.63 1398.19,278.81 1394.60,279.16 C1390.25,279.59 1384.30,281.73 1382.20,282.50 C1379.03,283.66 1374.76,284.39 1373.27,285.00 C1372.98,285.12 1366.26,287.76 1363.58,287.67 C1360.75,287.57 1357.66,288.11 1353.72,290.08 C1352.88,290.47 1332.01,296.59 1324.03,298.92 C1312.57,302.11 1300.14,304.21 1296.96,305.06 C1290.79,306.64 1276.11,311.58 1269.02,313.37 C1266.37,314.04 1257.94,315.94 1254.57,316.71 C1251.68,317.39 1244.87,320.06 1242.93,320.38 C1238.36,321.07 1234.41,321.89 1228.95,323.29 C1226.63,323.86 1218.00,324.63 1215.68,325.75 C1211.73,327.77 1208.80,328.73 1205.79,328.93 C1203.37,329.09 1196.55,332.14 1195.87,332.23 C1194.21,332.23 1191.80,332.35 1190.11,333.38 C1187.39,335.02 1180.59,336.17 1180.17,336.36 C1179.36,336.73 1176.64,338.74 1176.03,338.84 C1174.95,339.03 1173.82,338.68 1172.73,338.84 C1172.65,338.85 1171.25,340.39 1170.25,340.50 C1169.43,340.58 1168.52,340.15 1167.77,340.50 C1167.06,340.83 1166.86,341.91 1166.12,342.15 C1165.07,342.49 1163.88,341.87 1162.81,342.15 C1162.06,342.35 1159.72,344.96 1157.85,345.45 C1157.32,345.60 1155.93,345.53 1155.37,346.28 C1155.77,346.99 1156.59,347.21 1159.07,347.14 C1161.55,347.07 1165.19,347.25 1166.38,347.30 C1168.49,347.36 1170.28,346.87 1171.65,345.91 C1173.88,344.31 1176.94,343.99 1180.99,342.15 C1181.91,341.73 1186.04,340.55 1186.78,340.50 C1187.60,340.44 1189.64,340.41 1191.18,339.34 C1193.46,337.76 1195.53,337.40 1200.53,336.87 C1202.67,336.65 1204.93,335.21 1205.79,334.71 C1206.97,334.02 1209.92,333.99 1210.74,333.88 C1211.07,333.84 1213.68,332.58 1214.88,332.23 C1215.90,331.93 1223.90,330.21 1227.27,328.93 C1236.26,325.54 1243.44,324.50 1250.11,322.44 C1253.52,321.37 1260.00,318.27 1260.33,318.18 C1262.45,317.62 1270.88,317.12 1272.73,316.53 C1272.96,316.45 1279.50,313.68 1284.27,312.40 C1289.06,311.12 1292.98,309.50 1295.87,308.26 C1296.47,308.04 1313.56,303.85 1321.61,301.69 C1331.86,299.02 1340.74,297.06 1347.26,294.44 C1353.31,292.04 1376.30,287.01 1376.86,286.78 C1378.00,286.31 1380.94,284.77 1382.11,284.57 C1383.78,284.28 1388.30,284.53 1391.55,283.28 C1394.99,281.81 1401.48,279.13 1404.64,279.29 C1407.78,279.47 1412.89,277.73 1415.70,276.86 C1416.85,276.42 1420.61,274.55 1422.31,274.38 C1423.00,274.31 1425.72,274.66 1426.45,274.38 C1427.60,273.94 1430.50,272.48 1432.26,272.73 C1433.47,272.90 1434.28,272.90 1434.71,272.73 C1435.64,272.37 1437.54,270.89 1438.84,271.07 C1440.98,271.35 1443.86,270.69 1445.45,269.42 C1446.06,268.93 1446.40,268.09 1447.11,267.77 C1447.61,267.53 1449.08,267.69 1449.59,266.94 C1449.15,266.24 1448.51,266.04 1446.36,266.08 C1446.02,266.09 1406.33,266.04 1399.23,266.08 C1396.04,266.09 1390.61,267.68 1390.08,267.77 C1389.57,267.86 1379.57,267.67 1376.03,268.60 C1375.09,268.85 1357.39,272.69 1357.02,272.73 C1356.86,272.75 1351.16,272.49 1349.59,272.73 C1348.44,272.90 1339.85,275.96 1334.59,276.98 C1333.92,277.11 1295.89,283.31 1295.04,283.47 C1294.22,283.63 1279.32,287.52 1267.95,289.55 C1265.77,289.95 1259.06,291.77 1255.65,292.07 C1249.37,292.58 1243.06,293.34 1239.79,294.45 C1235.39,296.19 1231.30,297.07 1227.19,297.28 C1221.08,297.60 1197.57,304.01 1196.69,304.13 C1196.18,304.21 1191.76,304.21 1185.56,305.60 C1181.62,306.52 1172.57,308.60 1171.43,308.82 C1170.01,309.09 1164.57,308.94 1161.68,309.66 C1160.72,309.90 1151.05,312.49 1147.55,313.42 C1145.18,314.01 1137.84,314.80 1135.20,315.64 C1133.57,316.17 1130.13,317.23 1128.93,317.36 C1127.44,317.51 1121.77,317.34 1121.49,317.36 C1120.22,317.44 1102.76,322.47 1097.68,322.31 C1094.75,322.23 1088.42,324.22 1085.36,324.94 C1081.86,325.74 1075.10,325.50 1071.96,326.30 C1069.10,327.05 1064.03,329.10 1060.78,328.98 C1059.03,328.90 1055.42,328.76 1054.55,328.93 C1053.51,329.12 1050.71,330.52 1050.41,330.58 C1048.65,330.95 1041.02,330.35 1040.50,330.58 C1039.78,330.89 1039.57,331.96 1038.84,332.23 C1038.41,332.39 1037.31,332.39 1035.54,332.23 C1037.81,332.41 1041.10,332.49 1042.15,332.23 C1043.23,331.96 1045.24,329.84 1045.45,329.75 C1046.49,329.29 1049.36,328.75 1050.41,328.10 C1051.65,327.34 1053.19,327.43 1053.72,327.27 C1054.04,327.18 1059.13,324.40 1060.33,323.97 C1061.38,323.58 1068.13,322.53 1069.42,321.49 C1070.71,320.45 1076.95,318.42 1081.07,317.07 C1087.16,314.71 1100.69,309.75 1108.12,307.14 C1117.73,303.70 1126.08,300.92 1132.23,300.00 C1134.78,299.49 1141.30,297.62 1144.44,296.20 C1146.46,295.29 1200.90,280.44 1201.65,280.17 C1202.04,280.03 1208.84,277.23 1214.88,276.03 C1218.25,275.31 1229.77,271.09 1242.62,267.64 C1244.62,267.11 1250.07,266.33 1252.63,265.32 C1257.25,263.47 1262.35,261.71 1266.10,261.16 C1267.57,260.95 1272.06,260.59 1272.73,260.33 C1274.38,259.50 1276.71,258.40 1278.85,258.13 C1282.35,257.68 1294.01,254.52 1300.27,253.21 C1301.96,252.86 1306.46,253.15 1309.03,251.74 C1312.04,250.08 1315.99,249.47 1319.10,249.70 C1320.80,249.83 1323.62,248.30 1324.79,247.93 C1325.32,247.77 1325.98,248.22 1326.45,247.93 C1327.11,247.53 1327.37,246.56 1328.10,246.28 C1328.56,246.11 1332.15,246.33 1333.06,246.28 C1325.85,246.30 1313.58,246.21 1313.22,246.28 C1311.16,247.11 1308.89,247.98 1304.96,247.93 C1303.22,247.92 1297.68,249.38 1294.00,250.60 C1292.62,251.05 1272.82,253.32 1271.07,253.72 C1269.19,254.16 1261.21,257.24 1257.73,257.56 C1257.00,257.63 1247.97,258.06 1243.80,258.68 C1235.83,259.94 1226.36,262.83 1218.14,262.74 C1213.47,262.68 1195.39,265.73 1192.56,266.12 C1190.93,266.34 1182.01,267.23 1178.15,267.58 C1175.14,267.83 1167.31,267.73 1165.63,268.13 C1160.03,269.50 1133.06,271.90 1126.45,272.73 C1119.83,272.73 1109.92,272.90 1099.22,274.15 C1096.43,274.45 1089.58,274.38 1087.25,274.56 C1075.45,275.55 1061.92,277.84 1059.42,277.75 C1053.45,277.49 1035.41,279.49 1032.37,279.48 C1014.22,279.02 1000.65,279.27 990.34,280.69 C987.67,281.05 981.73,280.94 978.69,281.30 C974.43,281.81 966.44,282.76 963.92,282.70 C961.35,282.64 955.40,284.12 954.55,284.30 C953.94,284.42 929.38,284.18 928.93,284.30 C928.15,284.49 925.35,285.84 924.79,285.95 C923.60,286.18 917.27,285.93 914.88,285.95 C922.16,285.98 936.11,286.02 936.36,285.95 C936.74,285.85 937.90,284.40 938.84,284.30 C939.66,284.20 940.53,284.54 941.32,284.30 C942.98,283.47 945.59,282.35 948.43,282.48 C951.25,282.58 954.02,282.83 954.55,282.64 C955.70,282.23 956.67,281.33 957.85,280.99 C958.55,280.79 966.32,281.08 968.19,280.71 C969.56,280.42 976.46,278.09 977.08,277.94 C978.37,277.66 986.89,277.88 989.99,276.85 C992.80,275.90 996.40,276.18 999.72,275.21 C1003.13,274.22 1011.15,274.54 1013.98,273.55 C1016.17,272.77 1018.18,272.73 1019.83,272.73 C1020.36,272.67 1024.47,271.28 1025.62,271.07 C1026.98,270.83 1033.66,271.28 1037.24,270.25 C1040.54,269.30 1045.71,269.56 1048.50,268.60 C1051.86,267.45 1067.94,267.88 1068.60,267.77 C1070.70,267.39 1072.95,266.26 1073.55,266.12 C1073.96,266.02 1081.79,266.30 1083.89,265.30 C1086.03,264.28 1091.79,264.38 1095.04,264.46 C1097.46,264.50 1102.48,264.46 1103.31,264.46 C1101.03,264.49 1096.99,264.41 1096.69,264.46 C1096.58,264.48 1090.73,267.35 1085.15,268.94 C1075.77,271.54 1066.75,274.89 1058.68,276.03 C1057.17,276.25 1053.22,276.17 1052.07,276.03 C1050.69,275.85 1049.59,276.86 1048.76,277.69 C1048.59,277.79 1037.52,277.55 1037.19,277.69 C1036.48,278.00 1036.27,279.07 1035.54,279.34 C1035.11,279.50 1034.01,279.50 1032.23,279.34 C1034.11,279.46 1036.94,279.53 1038.02,279.34 C1039.15,279.14 1042.14,277.69 1042.15,277.69 C1042.69,277.57 1049.11,276.06 1052.07,275.21 C1052.88,274.92 1056.31,272.85 1057.02,272.73 C1058.11,272.54 1061.19,272.66 1063.73,271.90 C1066.30,271.14 1068.61,271.22 1069.42,271.07 C1069.97,270.97 1080.77,267.35 1085.51,266.10 C1095.37,262.91 1106.53,259.85 1112.95,258.81 C1114.23,258.60 1133.25,255.21 1136.72,253.25 C1138.72,252.12 1140.36,251.48 1142.15,251.24 C1142.65,251.18 1149.92,251.14 1152.07,250.41 C1152.92,250.12 1161.75,246.42 1163.64,246.28 C1167.21,246.28 1171.89,244.77 1175.81,243.90 C1187.19,241.34 1194.58,238.46 1195.67,238.23 C1196.65,238.02 1201.28,237.97 1206.55,236.40 C1216.09,233.49 1244.69,227.35 1247.65,225.96 C1249.70,225.00 1253.86,224.64 1258.68,223.14 C1259.96,222.74 1263.16,221.53 1263.64,221.49 C1264.46,221.41 1266.70,221.41 1268.20,220.69 C1270.45,219.62 1273.21,220.04 1273.55,219.83 C1274.22,219.43 1274.51,218.52 1275.21,218.18 C1275.76,218.18 1276.31,218.18 1276.86,218.18 C1277.41,217.63 1277.96,217.08 1278.51,216.53 C1279.06,216.53 1279.61,216.53 1280.17,216.53 C1280.86,216.18 1281.13,215.24 1281.82,214.88 C1282.31,214.62 1283.79,214.80 1284.30,214.05 C1283.86,213.35 1283.13,213.12 1280.82,213.16 C1276.89,213.19 1268.77,213.10 1268.60,213.22 C1267.96,213.68 1267.68,214.63 1266.94,214.88 C1265.90,215.23 1264.72,214.68 1263.64,214.88 C1262.72,215.04 1257.67,218.01 1257.02,218.18 C1256.23,218.40 1253.95,218.23 1252.14,218.90 C1249.90,219.73 1246.07,221.42 1245.45,221.49 C1244.36,221.60 1243.22,221.22 1242.15,221.49 C1240.95,221.79 1239.99,222.69 1238.84,223.14 C1238.33,223.34 1236.59,223.18 1234.91,223.74 C1232.38,224.59 1228.00,227.46 1226.14,227.76 C1223.64,228.14 1217.83,229.89 1214.26,230.66 C1207.86,232.06 1202.42,234.24 1202.30,234.25 C1200.20,234.52 1191.10,238.19 1189.94,238.66 C1186.86,239.87 1181.52,239.52 1179.66,240.47 C1178.11,241.27 1175.48,241.25 1174.38,241.32 C1172.23,241.47 1170.05,243.35 1169.42,243.80 C1168.16,244.72 1161.96,244.28 1159.23,245.80 C1158.48,246.21 1155.80,247.73 1154.55,247.93 C1153.54,248.10 1149.26,248.36 1147.93,248.76 C1146.65,249.14 1143.23,251.19 1142.98,251.24 C1142.17,251.42 1139.88,251.31 1138.04,252.05 C1136.12,252.83 1133.85,252.64 1133.06,252.89 C1131.40,253.72 1128.86,254.82 1126.25,254.63 C1123.60,254.45 1122.60,255.11 1122.31,255.37 C1121.94,255.74 1118.97,256.66 1118.18,257.02 C1115.84,258.08 1111.75,257.71 1111.57,257.85 C1110.94,258.31 1110.64,259.22 1109.92,259.50 C1109.44,259.70 1104.04,259.33 1103.31,259.50 C1102.97,259.58 1102.69,259.86 1102.48,260.33 C1102.81,261.03 1103.75,261.27 1106.57,261.20 C1109.27,261.12 1111.46,261.24 1111.57,261.16 C1112.19,260.68 1112.48,259.75 1113.22,259.50 C1114.27,259.15 1115.43,259.62 1116.53,259.50 C1116.55,259.50 1117.72,258.31 1119.01,257.85 C1119.83,257.55 1122.53,256.31 1123.14,256.20 C1123.68,256.11 1124.27,256.38 1124.79,256.20 C1125.95,255.79 1126.92,254.90 1128.10,254.55 C1128.89,254.31 1131.19,254.50 1132.60,253.89 C1133.85,253.35 1137.50,251.39 1138.02,251.24 C1138.78,251.01 1142.55,251.36 1142.98,251.24 C1143.35,251.15 1144.55,249.69 1145.45,249.59 C1146.28,249.49 1147.14,249.82 1147.93,249.59 C1149.12,249.24 1150.08,248.34 1151.24,247.93 C1151.79,247.93 1152.34,247.93 1152.89,247.93 C1154.06,247.55 1155.04,246.70 1156.20,246.28 C1156.72,246.09 1158.32,246.23 1160.38,245.54 C1162.37,244.87 1164.72,242.90 1167.08,243.12 C1169.36,243.31 1175.53,239.76 1176.03,239.67 C1176.49,239.59 1180.51,239.81 1180.99,239.67 C1181.37,239.56 1182.24,238.46 1183.47,238.02 C1184.29,237.72 1187.00,236.47 1187.60,236.36 C1188.42,236.21 1191.98,236.21 1193.39,235.54 C1194.29,235.12 1197.09,233.17 1198.35,233.06 C1199.17,232.98 1201.35,232.96 1203.58,231.90 C1205.52,230.98 1207.65,230.20 1208.96,229.94 C1209.96,229.75 1213.13,229.76 1213.22,229.75 C1214.19,229.62 1216.63,228.50 1218.36,227.57 C1219.82,226.77 1222.84,226.38 1229.85,224.18 C1234.23,222.80 1235.50,221.49 1235.54,221.49 C1236.63,221.36 1237.78,221.76 1238.84,221.49 C1239.94,220.94 1241.05,220.39 1242.15,219.83 C1243.22,219.56 1244.37,220.02 1245.45,219.83 C1247.66,219.45 1252.54,216.20 1252.89,215.70 C1252.52,215.00 1251.63,214.76 1249.07,214.83 C1246.53,214.90 1244.27,214.87 1242.68,214.75 C1241.16,214.63 1238.36,216.15 1237.19,216.53 C1236.67,216.70 1236.07,216.40 1235.54,216.53 C1235.16,216.62 1233.98,217.98 1233.06,218.18 C1232.56,218.29 1229.69,218.07 1228.93,218.18 C1227.01,218.44 1224.57,219.74 1223.97,219.83 C1223.07,219.99 1219.30,219.75 1219.01,219.83 C1218.63,219.94 1211.65,223.30 1209.61,223.14 C1207.38,222.97 1199.42,226.22 1198.35,226.45 C1196.88,226.76 1194.72,226.37 1194.21,226.45 C1193.35,226.57 1190.08,227.69 1188.43,228.10 C1187.19,228.47 1186.00,229.74 1185.95,229.75 C1184.87,229.94 1180.95,229.87 1179.34,230.58 C1178.21,231.07 1175.15,232.54 1172.67,232.73 C1170.16,232.93 1167.93,233.31 1166.94,233.88 C1166.08,234.38 1163.75,235.87 1161.16,236.36 C1155.66,237.42 1149.85,239.64 1149.59,239.67 C1146.83,239.67 1140.61,241.66 1136.72,242.89 C1132.85,244.16 1125.38,246.91 1124.79,247.11 C1123.85,247.44 1118.71,248.51 1118.18,248.76 C1116.94,249.59 1115.02,250.73 1112.91,250.91 C1110.78,251.11 1107.45,251.60 1106.61,252.07 C1105.93,252.44 1104.06,254.41 1102.48,254.55 C1100.83,254.55 1098.49,254.61 1097.12,255.24 C1091.65,257.76 1084.08,259.73 1081.96,259.48 C1080.65,259.31 1078.06,260.87 1076.86,261.16 C1075.79,261.42 1074.65,261.03 1073.55,261.16 C1073.28,261.19 1072.55,262.25 1071.90,262.81 C1074.18,262.76 1078.18,262.94 1078.51,262.81 C1079.23,262.52 1079.50,261.56 1080.17,261.16 C1080.63,260.87 1081.29,261.32 1081.82,261.16 C1082.99,260.79 1088.38,258.41 1088.43,258.36 C1089.54,257.45 1091.06,256.26 1091.74,256.20 C1092.83,256.09 1095.93,256.03 1098.35,254.70 C1100.00,253.80 1104.29,251.43 1104.96,251.24 C1106.89,251.24 1112.94,247.93 1114.88,247.93 C1115.45,247.77 1120.89,244.80 1121.49,244.63 C1122.02,244.47 1123.37,244.57 1124.99,243.46 C1126.42,242.49 1128.10,241.81 1129.42,241.66 C1130.95,241.52 1133.52,240.00 1134.71,239.67 C1135.50,239.44 1138.31,239.58 1138.84,238.84 C1139.21,238.35 1139.21,237.60 1139.67,237.19 C1140.44,236.50 1143.82,236.55 1144.63,236.36 C1145.01,236.28 1147.85,234.27 1148.76,233.88 C1149.69,233.48 1152.30,233.22 1152.89,233.06 C1153.69,232.84 1154.91,231.97 1156.10,230.92 C1157.28,229.89 1159.51,229.83 1160.33,229.75 C1161.55,229.65 1164.41,227.73 1165.29,227.27 C1165.67,227.07 1172.44,225.19 1177.12,223.32 C1178.80,222.64 1182.25,220.43 1187.62,218.91 C1189.62,218.36 1190.84,217.90 1191.74,217.36 C1192.98,216.60 1195.05,216.61 1195.87,216.53 C1197.16,216.40 1199.92,214.46 1200.83,214.05 C1201.32,213.83 1209.44,211.81 1211.57,210.74 C1215.34,208.86 1223.11,206.62 1223.14,206.61 C1223.96,206.52 1225.98,206.52 1228.73,204.95 C1231.03,203.64 1233.44,202.96 1235.01,203.16 C1236.22,203.34 1236.95,203.39 1237.19,203.31 C1238.36,202.91 1239.30,201.94 1240.50,201.65 C1241.60,201.65 1242.70,201.65 1243.80,201.65 C1245.00,201.36 1245.94,200.39 1247.11,200.00 C1247.63,199.83 1248.27,200.26 1248.76,200.00 C1249.59,199.17 1250.86,198.11 1252.07,198.35 C1250.29,198.19 1249.19,198.19 1248.76,198.35 C1248.03,198.63 1247.85,199.75 1247.11,200.00 C1246.06,200.34 1244.85,199.66 1243.80,200.00 C1243.06,200.25 1242.88,201.38 1242.15,201.65 C1241.11,202.02 1239.92,201.43 1238.84,201.65 C1237.64,201.91 1221.25,209.73 1220.66,209.92 C1220.20,210.07 1217.13,210.44 1216.53,210.74 C1215.64,211.18 1213.58,212.69 1212.25,213.08 C1208.39,214.27 1199.58,217.15 1199.17,217.36 C1197.54,218.18 1195.29,217.93 1194.21,218.18 C1193.37,218.38 1189.81,221.32 1189.26,221.49 C1188.47,221.73 1186.08,221.54 1183.90,222.29 C1182.58,222.73 1177.15,223.29 1174.38,224.79 C1172.55,225.81 1171.45,226.36 1171.07,226.45 C1170.00,226.69 1168.86,226.31 1167.77,226.45 C1167.71,226.45 1166.28,227.99 1165.29,228.10 C1164.47,228.21 1162.05,228.28 1159.58,229.74 C1157.06,231.20 1155.09,231.67 1152.89,231.40 C1151.96,231.28 1151.41,231.28 1151.24,231.40 C1150.61,231.87 1150.32,232.79 1149.59,233.06 C1148.76,233.38 1144.89,232.88 1144.63,233.06 C1143.98,233.49 1143.66,234.35 1142.98,234.71 C1142.68,234.87 1142.13,234.87 1141.32,234.71 C1142.43,234.78 1145.49,234.98 1146.28,234.71 C1147.45,234.31 1148.41,233.43 1149.59,233.06 C1150.11,232.89 1150.74,233.30 1151.24,233.06 C1151.94,232.72 1154.52,230.15 1156.20,229.75 C1157.00,229.56 1159.17,229.70 1160.86,228.91 C1165.29,226.88 1168.65,225.12 1171.07,224.79 C1171.53,224.74 1175.58,223.20 1176.03,223.14 C1176.58,223.07 1177.16,223.31 1177.69,223.14 C1180.62,221.82 1185.50,219.83 1188.43,219.83 C1190.01,219.67 1191.88,217.73 1192.56,217.36 C1194.53,216.27 1200.63,216.71 1202.48,215.70 C1203.05,215.39 1205.25,213.35 1205.79,213.22 C1206.59,213.03 1208.66,213.19 1210.67,212.54 C1214.02,211.48 1221.46,210.28 1222.31,209.92 C1224.38,208.68 1227.62,206.93 1232.20,206.21 C1237.43,205.40 1245.88,201.68 1246.28,201.65 C1247.38,201.57 1250.27,201.55 1252.81,200.46 C1255.92,199.14 1261.06,198.53 1263.80,197.34 C1265.54,196.59 1268.75,195.12 1269.42,195.04 C1270.52,194.91 1273.32,194.99 1274.58,194.39 C1278.27,192.64 1294.83,188.47 1295.08,188.38 C1299.10,186.85 1304.61,185.39 1310.41,184.21 C1316.38,182.99 1319.16,181.98 1321.49,180.17 C1323.75,178.66 1330.10,178.17 1330.75,177.85 C1332.85,176.84 1338.33,175.21 1341.32,175.21 C1343.32,175.03 1349.78,171.35 1350.41,171.07 C1352.43,170.21 1357.27,170.29 1359.69,169.30 C1361.50,168.58 1365.44,167.00 1366.12,166.94 C1367.21,166.86 1368.36,167.23 1369.42,166.94 C1370.61,166.63 1371.54,165.63 1372.73,165.29 C1373.77,164.98 1377.43,165.48 1377.69,165.29 C1378.31,164.82 1378.61,163.90 1379.34,163.64 C1380.17,163.32 1384.01,163.80 1384.30,163.64 C1384.56,163.48 1387.19,160.74 1387.60,160.33 C1384.80,160.35 1376.66,160.16 1376.03,160.33 C1374.85,160.67 1373.88,161.56 1372.73,161.98 C1372.21,162.18 1370.66,162.04 1368.72,162.82 C1366.89,163.57 1363.89,163.44 1362.81,163.64 C1362.35,163.72 1359.67,165.73 1358.68,166.12 C1357.75,166.49 1354.49,166.78 1353.72,166.94 C1352.41,167.21 1350.19,168.49 1349.59,168.60 C1348.77,168.74 1345.38,168.76 1343.80,169.42 C1343.06,169.73 1340.25,171.78 1339.67,171.90 C1338.86,172.07 1336.60,171.97 1335.07,172.71 C1333.45,173.50 1331.93,173.37 1331.40,173.55 C1330.24,173.96 1329.27,174.82 1328.10,175.21 C1327.58,175.38 1325.87,175.37 1323.14,176.86 C1320.41,178.35 1318.70,178.32 1318.18,178.51 C1317.02,178.93 1316.07,179.87 1314.88,180.17 C1313.80,180.42 1312.65,179.94 1311.57,180.17 C1310.20,180.45 1307.73,182.39 1307.44,182.64 C1306.64,183.36 1304.10,183.24 1303.31,183.47 C1302.12,183.82 1301.16,184.72 1300.00,185.12 C1299.17,185.12 1296.69,185.95 1295.04,186.78 C1294.52,186.95 1293.12,186.85 1292.56,187.60 C1292.84,188.30 1294.20,188.61 1296.69,188.43 C1298.54,188.29 1303.50,186.77 1304.96,185.95 C1306.36,185.17 1307.16,185.01 1309.16,185.12 C1311.17,185.24 1312.11,184.56 1312.40,184.30 C1312.74,183.99 1322.23,180.66 1323.97,180.17 C1325.13,179.84 1332.25,178.58 1334.71,177.69 C1336.06,177.20 1339.92,175.29 1340.50,175.21 C1341.58,175.04 1345.43,175.10 1347.11,174.38 C1351.76,172.05 1357.10,171.63 1359.12,170.78 C1362.38,169.41 1370.25,167.90 1373.36,166.41 C1376.36,164.98 1381.33,165.40 1382.64,164.46 C1383.28,164.01 1383.61,163.18 1384.30,162.81 C1384.98,162.44 1393.95,160.91 1395.87,160.33 C1397.79,159.75 1401.50,158.20 1402.48,157.85 C1404.48,157.13 1408.00,157.21 1409.09,157.02 C1409.62,156.94 1413.68,154.90 1414.88,154.55 C1415.86,154.25 1421.69,153.53 1425.62,152.07 C1427.28,151.45 1430.48,150.48 1431.40,150.41 C1432.14,150.36 1435.08,150.66 1436.36,150.41 C1437.44,150.20 1445.83,146.72 1448.59,146.88 C1449.20,146.92 1449.82,147.25 1450.41,147.11 C1450.79,147.02 1451.93,145.62 1452.89,145.45 C1453.52,145.34 1458.20,145.57 1458.68,145.45 C1458.91,145.40 1459.69,144.36 1460.33,143.80 C1457.02,143.80 1447.55,143.84 1447.11,143.80 C1445.76,143.68 1443.34,145.13 1442.15,145.45 C1441.00,145.77 1437.63,145.30 1437.19,145.45 C1436.37,145.74 1431.22,148.58 1430.58,148.76 C1429.81,148.98 1426.39,148.54 1425.62,148.76 C1424.86,148.97 1419.75,151.88 1419.01,152.07 C1418.21,152.28 1415.95,152.10 1414.25,152.73 C1411.60,153.73 1406.95,155.45 1404.72,155.20 C1403.42,155.07 1401.32,155.74 1399.02,157.02 C1396.26,158.57 1394.21,158.66 1393.39,158.68 C1391.80,158.71 1372.34,165.36 1370.49,166.22 C1369.07,166.89 1361.06,167.86 1355.09,170.49 C1353.64,171.14 1350.66,172.44 1349.59,172.73 C1347.92,173.17 1344.62,173.42 1343.80,173.55 C1342.15,173.82 1340.50,175.21 1339.67,176.03 C1338.71,176.71 1335.52,176.71 1334.71,176.86 C1334.10,176.96 1327.05,180.07 1326.45,180.17 C1325.63,180.30 1323.22,180.30 1321.12,181.32 C1318.91,182.37 1316.23,183.39 1314.88,183.47 C1313.78,183.54 1312.64,183.19 1311.57,183.47 C1310.82,183.66 1307.36,186.59 1306.61,186.78 C1305.54,187.05 1301.77,186.88 1300.00,187.60 C1299.43,187.83 1297.22,188.26 1296.69,188.43 C1295.52,188.80 1292.67,190.43 1290.91,191.05 C1288.22,192.00 1283.65,191.60 1283.47,191.74 C1282.84,192.19 1282.54,193.10 1281.82,193.39 C1281.44,193.54 1273.42,193.38 1271.90,193.39 C1273.00,193.45 1276.05,193.63 1276.86,193.39 C1279.48,192.58 1283.37,188.45 1283.47,188.43 C1284.01,188.34 1285.65,188.25 1287.60,186.78 C1289.56,185.30 1291.19,185.22 1291.74,185.12 C1291.84,185.11 1293.39,183.47 1294.21,182.64 C1295.01,181.77 1302.13,178.89 1303.31,178.51 C1303.83,178.34 1306.02,178.47 1306.61,177.69 C1307.21,176.89 1307.36,175.62 1308.26,175.21 C1309.26,174.74 1310.51,175.51 1311.57,175.21 C1312.32,174.99 1312.56,173.96 1313.22,173.55 C1313.70,173.27 1314.35,173.72 1314.88,173.55 C1315.38,173.40 1319.33,170.40 1319.83,170.25 C1320.36,170.08 1321.00,170.51 1321.49,170.25 C1322.18,169.89 1322.46,168.98 1323.14,168.60 C1323.62,168.33 1325.26,168.48 1327.89,167.06 C1331.47,165.15 1336.32,163.77 1339.87,161.88 C1342.50,160.46 1343.80,160.33 1344.63,160.33 C1345.01,160.24 1346.21,158.81 1347.11,158.68 C1349.49,158.68 1356.11,156.23 1356.20,156.20 C1357.37,155.80 1358.84,154.12 1359.50,153.72 C1359.77,153.55 1363.68,154.04 1364.46,153.72 C1365.18,153.43 1365.38,152.32 1366.12,152.07 C1367.15,151.70 1368.33,152.22 1369.42,152.07 C1369.80,152.01 1370.07,151.74 1370.25,151.24 C1369.97,150.54 1368.57,150.22 1366.12,150.41 C1364.64,150.53 1359.24,152.02 1357.85,152.89 C1356.91,153.48 1354.87,155.30 1354.55,155.37 C1353.74,155.54 1351.40,155.47 1348.94,156.49 C1340.78,159.82 1333.84,160.81 1326.79,164.93 C1325.50,165.68 1323.63,166.82 1323.14,166.94 C1322.28,167.15 1318.64,167.43 1317.36,167.77 C1316.67,167.95 1296.36,175.67 1290.91,176.86 C1289.08,177.25 1287.42,178.89 1286.78,179.34 C1286.38,179.62 1280.04,180.54 1278.51,180.99 C1278.12,181.11 1267.42,184.00 1266.94,184.30 C1266.12,185.12 1264.14,186.64 1261.98,186.78 C1260.88,186.85 1257.90,186.90 1256.17,187.87 C1251.53,190.49 1248.42,191.65 1245.45,191.74 C1244.90,191.75 1243.42,191.82 1241.78,192.60 C1240.27,193.33 1237.99,193.17 1237.19,193.39 C1236.85,193.48 1231.82,196.36 1230.58,196.69 C1229.34,197.04 1225.82,196.58 1225.62,196.69 C1224.94,197.07 1224.70,198.07 1223.97,198.35 C1223.16,198.67 1219.27,198.17 1219.01,198.35 C1218.36,198.78 1218.05,199.65 1217.36,200.00 C1216.87,200.26 1215.54,200.03 1214.88,200.83 C1214.73,201.01 1214.45,201.28 1214.05,201.65 C1216.63,201.61 1218.78,201.74 1219.01,201.65 C1220.15,201.19 1222.35,199.99 1230.58,198.35 C1230.96,198.27 1234.16,196.69 1235.65,195.98 C1237.37,195.12 1239.67,195.04 1241.32,195.04 C1241.99,194.97 1244.76,193.45 1245.45,193.39 C1246.55,193.29 1247.69,193.67 1248.76,193.39 C1249.95,193.08 1250.89,192.11 1252.07,191.74 C1252.85,191.49 1255.11,191.69 1256.74,190.99 C1258.36,190.31 1260.64,188.65 1263.92,188.09 C1266.13,187.71 1271.69,185.18 1271.90,185.12 C1272.61,184.93 1275.78,184.68 1276.86,184.30 C1277.94,183.92 1281.31,181.91 1281.82,181.82 C1282.90,181.62 1286.70,181.69 1288.43,180.99 C1290.06,180.34 1304.81,176.35 1308.26,174.38 C1309.13,173.90 1311.25,172.50 1314.06,172.00 C1318.30,171.23 1324.38,168.74 1326.45,168.60 C1327.37,168.53 1331.98,167.42 1333.06,166.94 C1333.71,166.66 1336.38,164.72 1337.19,164.46 C1338.29,164.11 1342.74,163.81 1343.80,163.64 C1345.23,163.42 1347.87,161.59 1348.76,161.16 C1349.30,160.89 1352.84,160.33 1354.47,160.06 C1356.37,159.77 1358.68,158.68 1360.33,157.85 C1362.03,157.15 1365.30,157.16 1366.12,157.02 C1366.62,156.94 1376.77,152.84 1379.74,152.15 C1383.67,151.23 1401.30,145.49 1401.65,145.45 C1403.31,145.45 1406.06,145.35 1407.44,144.63 C1408.23,144.22 1411.37,142.37 1412.40,142.15 C1413.13,141.99 1416.70,142.26 1417.36,142.15 C1417.73,142.08 1427.55,137.70 1430.58,137.19 C1431.96,136.96 1435.45,137.20 1435.54,137.19 C1436.40,137.06 1446.26,133.89 1446.28,133.88 C1446.48,133.85 1450.21,134.08 1451.24,133.88 C1452.24,133.70 1455.13,132.27 1455.37,132.23 C1456.19,132.10 1458.33,132.18 1460.60,131.43 C1463.96,130.35 1467.64,130.62 1469.32,130.84 C1471.19,130.87 1480.50,128.12 1481.09,127.93 C1483.33,127.21 1493.20,127.26 1493.39,127.27 C1494.81,127.37 1497.16,125.95 1498.35,125.62 C1498.83,125.48 1503.86,125.56 1504.96,125.62 C1506.37,125.72 1508.74,124.32 1509.92,123.97 C1510.42,123.81 1517.16,123.99 1518.18,123.97 C1517.35,123.81 1516.79,123.81 1516.53,123.97 C1515.86,124.37 1515.62,125.39 1514.88,125.62 C1513.77,125.62 1512.67,125.62 1511.57,125.62 C1510.83,125.85 1510.56,126.83 1509.92,127.27 C1509.46,127.58 1498.87,128.75 1498.35,128.93 C1497.98,129.05 1497.05,130.15 1495.87,130.58 C1495.05,130.87 1492.34,132.14 1491.74,132.23 C1490.65,132.40 1487.63,132.25 1486.24,132.56 C1484.96,132.83 1481.91,133.87 1481.82,133.88 C1481.33,133.97 1475.91,133.93 1472.73,134.71 C1466.49,136.06 1461.64,137.27 1459.62,137.38 C1449.23,138.01 1437.04,138.71 1436.36,138.84 C1435.38,139.04 1428.17,140.75 1424.01,140.61 C1421.36,140.47 1416.51,140.28 1414.40,141.32 C1412.58,142.21 1404.29,142.08 1404.13,142.15 C1402.99,142.62 1399.95,144.07 1397.40,143.94 C1394.87,143.82 1393.59,143.78 1392.56,143.80 C1398.32,143.75 1401.98,143.95 1402.48,143.80 C1403.66,143.45 1404.61,142.53 1405.79,142.15 C1406.68,141.86 1411.77,142.08 1412.40,142.15 C1413.75,142.31 1415.59,140.82 1416.53,140.50 C1417.34,140.22 1422.11,140.42 1423.97,140.50 C1425.92,140.60 1427.43,140.29 1428.10,139.67 C1428.38,139.40 1429.30,138.75 1431.24,138.93 C1433.10,139.11 1436.03,137.60 1437.19,137.19 C1437.82,136.96 1444.16,137.11 1446.28,136.36 C1448.42,135.58 1450.00,135.54 1451.24,135.54 C1451.88,135.45 1454.83,133.98 1455.37,133.88 C1455.93,133.78 1461.89,133.97 1464.20,133.60 C1465.40,133.40 1468.25,131.80 1469.42,131.40 C1470.43,131.07 1476.03,130.58 1476.86,130.58 C1479.51,130.58 1486.96,127.88 1490.13,127.44 C1491.39,127.27 1496.32,127.23 1502.74,125.61 C1508.92,124.08 1514.83,123.97 1514.88,123.97 C1515.71,123.84 1522.60,121.81 1523.37,121.51 C1527.23,120.06 1537.30,120.87 1538.02,120.66 C1539.20,120.31 1540.13,119.32 1541.32,119.01 C1542.39,118.72 1545.09,118.97 1546.56,118.21 C1548.70,117.13 1551.44,117.19 1556.08,117.52 C1557.46,117.62 1558.81,116.05 1559.50,115.70 C1560.02,115.44 1563.26,115.63 1564.46,115.70 C1556.91,115.73 1544.27,115.62 1543.80,115.70 C1543.39,115.78 1533.23,119.36 1531.27,119.29 C1530.76,119.26 1527.55,119.03 1526.45,119.01 C1524.89,118.98 1524.36,119.12 1522.77,119.86 C1521.28,120.58 1519.00,120.54 1518.18,120.66 C1517.49,120.76 1514.77,122.03 1513.22,122.31 C1511.66,122.60 1503.35,122.30 1503.31,122.31 C1502.16,122.77 1501.18,123.62 1500.00,123.97 C1499.21,124.20 1497.13,124.01 1495.20,124.77 C1492.42,125.84 1487.23,125.62 1484.26,125.45 C1482.08,125.42 1479.88,125.83 1478.58,126.47 C1477.09,127.24 1475.20,127.16 1474.38,127.27 C1473.72,127.36 1470.77,128.83 1470.25,128.93 C1469.52,129.07 1463.19,128.69 1459.82,129.78 C1456.89,130.73 1452.70,130.42 1450.70,131.38 C1448.77,132.30 1441.72,132.26 1441.32,132.23 C1439.28,132.09 1437.19,133.06 1435.54,133.88 C1434.78,134.14 1431.33,133.64 1430.58,133.88 C1429.41,134.26 1426.61,135.81 1425.30,135.70 C1424.22,135.62 1422.05,135.45 1420.95,135.37 C1419.65,135.27 1416.88,136.83 1415.70,137.19 C1415.21,137.34 1408.46,137.17 1407.44,137.19 C1408.97,137.18 1413.15,137.14 1414.05,137.19 C1416.84,137.32 1417.88,137.05 1420.66,135.54 C1423.51,133.98 1426.48,134.12 1427.27,133.88 C1428.45,133.53 1429.42,132.64 1430.58,132.23 C1431.10,132.05 1432.79,132.12 1434.72,131.09 C1436.39,130.22 1438.53,128.99 1438.84,128.93 C1438.90,128.92 1441.99,129.13 1442.98,128.93 C1443.86,128.75 1446.94,127.30 1447.11,127.27 C1447.65,127.19 1448.24,127.44 1448.76,127.27 C1449.93,126.90 1452.85,125.24 1454.67,124.63 C1456.40,124.03 1458.69,124.09 1459.50,123.97 C1459.85,123.92 1463.52,122.47 1464.46,122.31 C1465.45,122.14 1468.12,122.46 1468.60,122.31 C1469.93,121.91 1473.46,119.39 1474.38,119.01 C1475.35,118.61 1479.88,119.20 1480.17,119.01 C1480.81,118.57 1481.09,117.64 1481.82,117.36 C1482.43,117.10 1487.82,117.61 1488.43,117.36 C1489.15,117.06 1489.41,116.10 1490.08,115.70 C1490.56,115.42 1491.21,115.87 1491.74,115.70 C1492.90,115.31 1493.85,114.37 1495.04,114.05 C1495.66,113.89 1496.76,113.89 1498.35,114.05 C1495.81,114.10 1493.52,113.96 1493.39,114.05 C1492.75,114.50 1492.46,115.41 1491.74,115.70 C1490.98,116.03 1488.25,115.81 1487.60,116.53 C1487.09,117.07 1486.82,117.35 1486.78,117.36 C1485.68,117.50 1484.55,117.12 1483.47,117.36 C1482.84,117.49 1479.37,119.45 1478.05,120.00 C1476.67,120.62 1474.32,120.36 1473.55,120.66 C1472.83,120.94 1470.47,123.43 1468.60,123.97 C1468.15,124.10 1467.60,124.10 1466.94,123.97 C1470.55,124.02 1479.65,122.50 1480.17,122.31 C1481.33,121.90 1484.10,120.41 1486.41,120.08 C1499.26,118.09 1525.82,112.17 1528.99,112.10 C1529.07,112.10 1609.09,112.40 1609.09,112.40 C1610.28,112.73 1611.23,113.65 1612.40,114.05 C1613.41,114.40 1623.30,113.79 1623.97,114.05 C1625.12,114.50 1627.99,115.97 1629.42,115.79 C1630.92,115.61 1632.41,115.88 1633.06,116.53 C1633.34,116.80 1634.42,117.49 1637.00,117.44 C1639.79,117.40 1643.21,117.18 1643.80,117.36 C1645.45,118.18 1647.95,119.28 1650.65,119.15 C1651.67,119.10 1652.69,119.06 1653.72,119.01 C1653.72,119.01 1653.72,120.66 1653.72,120.66 C1625.00,120.63 1619.25,120.75 1619.01,120.66 C1617.86,120.22 1614.78,118.56 1613.25,118.01 C1611.54,117.40 1608.50,117.64 1607.44,117.36 C1606.25,117.04 1605.30,116.09 1604.13,115.70 C1603.38,115.45 1599.65,115.95 1599.17,115.70 C1598.35,114.88 1597.04,113.80 1595.18,114.05 C1593.32,114.30 1590.42,112.80 1589.26,112.40 C1588.51,112.13 1585.43,112.33 1584.30,112.40 C1584.30,112.40 1584.30,110.74 1584.30,110.74 C1591.70,110.76 1609.83,110.61 1610.74,110.74 C1611.56,110.87 1619.03,112.52 1621.58,112.40 C1623.85,112.29 1631.55,114.21 1634.44,114.07 C1637.26,113.94 1644.20,115.85 1647.16,116.36 C1653.08,117.33 1656.70,117.46 1658.86,118.16 C1662.20,119.23 1666.14,119.01 1668.05,118.84 C1670.04,118.79 1674.89,120.26 1676.86,120.66 C1678.02,121.08 1678.99,121.95 1680.17,122.31 C1681.11,122.61 1685.70,122.39 1686.78,122.31 C1688.09,122.21 1692.30,124.23 1695.53,123.97 C1697.73,123.77 1700.00,124.79 1701.65,125.62 C1702.18,125.79 1702.83,125.33 1703.31,125.62 C1703.97,126.02 1704.24,126.98 1704.96,127.27 C1705.31,127.41 1710.47,127.34 1711.57,127.27 C1712.98,127.17 1715.34,128.59 1716.53,128.93 C1717.36,129.17 1722.52,128.67 1723.14,128.93 C1723.86,129.22 1724.11,130.21 1724.79,130.58 C1725.27,130.85 1728.56,130.65 1729.75,130.58 C1724.58,130.55 1706.98,130.87 1703.02,130.09 C1702.32,129.95 1698.78,128.93 1698.35,128.93 C1697.80,128.92 1697.17,129.20 1696.69,128.93 C1696.02,128.53 1695.74,127.62 1695.04,127.27 C1694.54,127.03 1693.87,127.54 1693.39,127.27 C1692.70,126.90 1692.46,125.90 1691.74,125.62 C1690.91,125.30 1687.04,125.80 1686.78,125.62 C1686.13,125.18 1685.81,124.33 1685.12,123.97 C1684.83,123.81 1684.28,123.81 1683.47,123.97 C1696.69,123.97 1699.60,123.80 1700.00,123.97 C1700.72,124.27 1700.92,125.36 1701.65,125.62 C1702.69,125.98 1703.89,125.37 1704.96,125.62 C1706.16,125.91 1707.08,126.94 1708.26,127.27 C1709.33,127.56 1712.13,127.32 1714.38,128.10 C1717.30,129.08 1722.25,128.75 1726.34,129.75 C1729.69,130.58 1743.58,132.23 1748.76,133.88 C1750.98,134.58 1752.28,135.44 1752.89,135.54 C1754.08,135.74 1757.53,135.40 1757.85,135.54 C1758.99,136.00 1761.96,137.46 1763.84,137.27 C1765.73,137.10 1766.31,137.24 1766.94,138.02 C1767.08,138.20 1767.35,138.47 1767.77,138.84 C1767.77,138.84 1751.24,138.84 1751.24,138.84 C1756.95,138.89 1760.81,138.72 1761.16,138.84 C1761.89,139.11 1764.13,141.55 1766.12,142.15 C1766.76,142.36 1769.01,141.87 1769.42,142.15 C1770.07,142.58 1770.33,143.56 1771.07,143.80 C1772.12,144.14 1773.31,143.55 1774.38,143.80 C1775.58,144.09 1776.49,145.14 1777.69,145.45 C1778.75,145.73 1779.90,145.33 1780.99,145.45 C1781.38,145.50 1785.56,148.71 1785.95,148.76 C1787.04,148.90 1788.18,148.52 1789.26,148.76 C1789.28,148.77 1793.26,150.76 1795.64,151.55 C1802.03,153.67 1803.61,153.53 1804.13,153.72 C1805.29,154.14 1806.27,154.98 1807.44,155.37 C1807.96,155.55 1808.56,155.21 1809.09,155.37 C1810.27,155.73 1813.24,157.42 1815.04,158.02 C1816.87,158.64 1818.49,158.49 1819.01,158.68 C1820.16,159.11 1821.13,159.98 1822.31,160.33 C1823.10,160.57 1826.24,160.43 1827.27,161.16 C1828.10,161.98 1829.87,163.46 1831.40,163.64 C1831.97,163.71 1834.77,163.36 1835.54,163.64 C1836.69,164.06 1837.67,164.90 1838.84,165.29 C1839.39,165.29 1839.94,165.29 1840.50,165.29 C1841.66,165.69 1842.63,166.57 1843.80,166.94 C1844.33,167.10 1844.99,166.65 1845.45,166.94 C1846.12,167.35 1846.38,168.32 1847.11,168.60 C1847.93,168.91 1851.83,168.42 1852.07,168.60 C1852.70,169.05 1852.99,169.96 1853.72,170.25 C1854.33,170.50 1859.76,169.99 1860.33,170.25 C1861.05,170.56 1861.25,171.63 1861.98,171.90 C1862.41,172.06 1863.51,172.06 1865.29,171.90 C1859.54,171.85 1855.88,172.04 1855.37,171.90 C1854.18,171.58 1851.52,170.00 1849.10,169.36 C1844.74,168.18 1837.13,166.15 1833.88,165.29 C1835.01,165.26 1839.27,165.16 1839.52,165.15 C1841.51,165.08 1844.34,166.41 1845.45,166.94 C1850.26,169.31 1858.66,170.47 1872.71,171.33 C1876.44,171.54 1881.41,171.83 1882.64,171.90" fill="none" stroke="rgb(183, 186, 219)" stroke-width="148.60" stroke-opacity="1.00" stroke-linejoin="round"/>
<path d="M1882.64,171.90 C1881.31,171.80 1879.28,171.75 1878.51,171.90 C1878.35,171.93 1872.30,173.85 1865.69,174.64 C1861.98,175.10 1855.04,177.01 1852.79,176.94 C1849.46,176.84 1846.34,177.39 1842.54,178.50 C1837.99,179.83 1823.44,181.80 1820.00,182.24 C1817.44,182.57 1809.63,184.62 1807.40,184.90 C1804.30,185.27 1798.87,184.71 1795.04,185.12 C1791.31,185.54 1756.37,192.02 1751.41,193.10 C1749.77,193.44 1745.63,193.32 1742.90,193.78 C1735.00,195.14 1718.32,197.94 1713.87,198.09 C1711.77,198.18 1665.18,207.63 1659.16,207.95 C1656.14,208.11 1634.27,213.36 1631.69,213.24 C1629.81,213.15 1606.24,218.47 1603.25,219.06 C1597.90,220.27 1578.95,223.79 1578.51,223.97 C1577.37,224.42 1574.61,225.88 1572.45,226.36 C1560.09,229.17 1553.69,230.80 1550.93,231.39 C1548.43,231.94 1546.92,233.44 1546.28,233.88 C1543.58,235.78 1538.47,236.06 1538.02,236.36 C1537.37,236.80 1537.10,237.77 1536.36,238.02 C1535.32,238.37 1534.16,237.94 1533.06,238.02 C1532.83,238.04 1531.84,239.39 1530.58,240.50 C1529.05,241.91 1528.68,242.66 1528.93,243.80 C1529.12,244.53 1530.96,244.81 1533.06,244.63 C1534.41,244.50 1536.83,245.95 1538.02,246.28 C1538.84,246.51 1547.15,246.04 1549.38,247.11 C1551.52,248.12 1556.50,247.92 1558.31,247.93 C1585.89,247.93 1650.35,247.94 1687.23,247.94 C1723.72,247.87 1787.92,247.84 1815.62,247.88 C1817.53,247.91 1819.47,247.90 1819.83,247.93 C1821.63,248.10 1827.11,249.60 1831.75,249.69 C1839.26,249.76 1855.30,249.63 1861.98,249.59 C1855.13,249.60 1839.91,249.63 1838.11,249.92 C1828.96,251.39 1817.24,251.14 1816.53,251.24 C1815.72,251.35 1808.79,252.96 1805.57,252.98 C1803.94,252.98 1783.51,252.70 1778.86,253.83 C1776.02,254.40 1755.42,256.54 1746.65,257.38 C1740.70,257.86 1731.23,257.60 1720.26,258.96 C1703.51,261.23 1666.60,264.38 1660.33,265.29 C1658.29,265.59 1652.02,266.93 1648.37,267.23 C1640.90,267.83 1623.51,267.65 1619.19,267.94 C1614.22,268.29 1526.61,277.96 1493.88,281.30 C1484.21,282.22 1437.76,286.30 1411.67,288.81 C1394.90,290.50 1346.55,295.53 1326.34,298.83 C1316.98,300.41 1299.92,303.25 1292.23,304.50 C1282.47,306.01 1275.25,306.37 1266.52,307.21 C1256.28,308.37 1246.24,310.10 1238.02,312.29 C1233.10,313.68 1218.17,318.27 1210.84,319.35 C1200.92,320.68 1192.27,322.34 1181.86,324.95 C1174.08,326.85 1161.76,328.53 1154.50,330.72 C1149.94,332.12 1128.66,339.56 1128.10,339.67 C1127.14,339.86 1122.64,340.47 1122.04,340.57 C1119.14,341.05 1112.09,344.96 1108.54,345.27 C1107.35,345.36 1103.57,345.53 1102.55,345.73 C1101.50,345.93 1097.22,348.74 1093.35,349.93 C1091.21,350.59 1083.49,352.76 1081.88,354.17 C1080.73,355.21 1079.06,355.35 1078.51,355.37 C1077.80,355.39 1077.61,356.76 1077.69,359.50 C1079.71,360.11 1080.75,360.60 1080.99,361.16 C1081.37,361.89 1082.41,362.11 1085.13,362.00 C1087.87,361.88 1089.52,362.57 1090.08,362.81 C1090.56,363.02 1098.77,365.40 1100.92,365.36 C1104.09,365.25 1110.52,365.11 1113.58,365.78 C1118.26,366.87 1121.07,366.94 1123.14,366.94 C1124.02,367.02 1133.35,368.76 1135.77,368.73 C1142.90,368.62 1157.19,369.55 1162.13,370.08 C1163.51,370.22 1169.97,370.13 1172.91,370.56 C1181.88,371.91 1193.92,371.99 1200.11,372.04 C1235.50,372.01 1318.31,371.74 1329.10,372.28 C1336.84,372.83 1347.06,373.56 1350.47,373.66 C1374.91,373.75 1435.48,373.97 1471.61,374.11 C1512.85,374.26 1584.38,374.52 1614.67,374.63 C1620.42,374.65 1631.18,374.69 1636.19,374.71" fill="none" stroke="rgb(183, 186, 219)" stroke-width="148.60" stroke-opacity="1.00" stroke-linejoin="round"/>
<path d="M1951.11,296.11 C1925.36,313.10 1871.36,348.74 1843.12,367.38 C1842.03,368.09 1839.94,369.48 1838.93,370.14 C1824.02,370.15 1793.40,370.21 1777.69,370.25 C1766.80,370.38 1761.54,370.08 1749.20,369.04 C1735.72,368.59 1708.73,367.30 1695.22,366.47 C1687.55,365.71 1672.64,364.37 1665.39,363.78 C1631.16,362.73 1593.95,359.50 1579.27,358.43 C1567.60,357.16 1557.01,357.19 1553.11,356.73 C1542.50,355.37 1534.45,355.17 1522.31,355.37 C1515.29,355.40 1507.37,355.42 1497.52,354.55 C1495.26,354.35 1474.69,353.11 1466.27,352.63 C1454.77,352.09 1444.86,352.26 1440.96,351.75 C1437.47,351.25 1430.57,350.26 1428.74,350.27 C1417.77,350.42 1401.11,350.39 1397.46,350.49 C1394.21,350.58 1385.48,348.75 1375.03,348.62 C1357.11,348.66 1329.51,348.74 1319.83,348.76 C1325.04,348.74 1330.18,348.84 1331.40,348.76 C1335.45,348.46 1340.22,347.04 1342.47,347.06 C1351.39,347.05 1370.97,347.12 1371.07,347.11 C1371.84,346.98 1379.26,345.27 1382.76,345.37 C1387.86,345.61 1392.17,345.30 1397.62,344.29 C1401.46,343.58 1418.13,343.80 1425.51,343.79 C1433.76,343.81 1455.21,343.98 1456.75,343.97 C1463.86,343.90 1479.35,342.31 1485.12,342.15 C1486.71,342.11 1567.32,341.99 1601.30,341.98 C1642.17,342.01 1716.81,342.08 1750.57,342.11 C1778.87,342.14 1826.66,342.17 1846.15,342.17" fill="none" stroke="rgb(183, 186, 219)" stroke-width="148.60" stroke-opacity="1.00" stroke-linejoin="round"/>
<path d="M1845.98,302.78 C1844.64,302.41 1840.39,302.44 1837.10,302.63 C1834.60,302.69 1830.94,300.93 1828.10,300.83 C1822.78,300.65 1815.59,297.31 1813.21,297.52 C1811.30,297.69 1810.26,297.38 1807.44,295.87 C1806.53,295.38 1803.92,294.26 1803.31,294.21 C1802.48,294.16 1800.12,294.04 1797.52,292.62 C1795.00,291.23 1792.53,290.44 1791.74,290.08 C1791.22,289.86 1788.10,287.74 1787.60,287.60 C1787.07,287.46 1784.86,287.02 1784.30,286.78 C1783.72,286.53 1779.78,285.42 1779.34,285.12 C1778.69,284.69 1776.61,282.69 1774.38,281.82 C1773.55,281.49 1769.90,280.50 1769.42,280.17 C1765.37,277.31 1762.55,275.00 1760.24,273.92 C1756.51,272.16 1742.61,263.36 1737.86,261.36 C1736.73,260.88 1721.98,252.39 1721.49,252.07 C1720.66,251.52 1717.27,250.04 1716.53,249.59 C1715.86,249.19 1713.29,246.75 1711.57,246.28 C1711.04,246.13 1709.83,246.27 1709.09,245.45 C1708.85,245.18 1708.30,244.63 1707.44,243.80 C1707.86,243.10 1708.52,242.90 1710.82,242.93 C1711.19,242.94 1753.44,242.83 1760.97,242.91 C1763.34,242.91 1768.87,244.71 1772.07,244.76 C1775.50,244.81 1783.53,244.74 1787.37,244.68 C1789.64,244.65 1794.04,244.43 1797.83,245.48 C1801.53,246.49 1810.19,246.10 1811.57,246.28 C1811.71,246.30 1818.97,248.13 1822.31,247.93 C1823.13,247.90 1832.95,247.97 1837.82,247.79 C1840.06,247.75 1845.40,249.79 1847.90,249.68 C1852.34,249.45 1855.40,249.75 1859.17,250.78 C1861.90,251.42 1869.22,251.09 1871.90,251.24 C1874.37,251.38 1881.56,252.47 1884.30,252.89" fill="none" stroke="rgb(183, 186, 219)" stroke-width="148.60" stroke-opacity="1.00" stroke-linejoin="round"/>
<path d="M1752.07,228.10 C1755.83,228.04 1766.59,227.96 1767.77,228.10 C1769.39,228.30 1775.34,230.89 1779.34,231.40 C1782.11,231.74 1788.06,231.09 1789.26,231.40 C1792.98,232.64 1798.31,234.31 1802.41,234.55 C1807.59,234.87 1811.25,235.31 1814.36,236.34 C1818.39,237.68 1823.78,238.25 1828.44,238.03 C1833.16,237.80 1839.05,238.35 1843.28,239.61 C1849.10,241.33 1852.38,242.16 1855.69,242.52 C1859.79,242.93 1868.16,242.90 1868.60,242.98 C1869.12,243.06 1876.03,245.04 1878.51,245.45 C1882.53,246.42 1891.63,246.26 1891.74,246.28 C1892.20,246.38 1895.06,247.85 1895.87,247.93 C1897.52,247.93 1899.23,247.94 1901.13,248.74 C1903.68,249.77 1910.07,249.76 1913.22,249.59 C1915.66,249.46 1918.48,250.70 1919.83,251.24" fill="none" stroke="rgb(183, 186, 219)" stroke-width="148.60" stroke-opacity="1.00" stroke-linejoin="round"/>
<path d="M1845.42,244.00 C1838.73,243.25 1824.20,241.71 1816.37,240.92 C1806.99,240.19 1790.68,237.42 1788.24,237.00 C1781.77,235.90 1750.56,231.65 1727.45,229.67 C1716.39,228.88 1697.37,228.15 1696.69,228.10 C1688.98,227.37 1673.35,225.82 1665.44,225.02 C1661.46,224.65 1652.80,224.68 1641.96,223.42 C1625.30,221.55 1584.64,218.67 1579.92,218.36 C1575.71,218.09 1561.68,218.05 1551.99,217.21 C1542.25,216.38 1460.85,216.52 1429.13,216.53 C1412.43,217.01 1352.93,221.17 1341.83,222.88 C1339.02,223.30 1323.62,223.19 1314.26,224.33 C1306.48,225.37 1287.51,227.91 1285.12,228.10 C1279.98,228.50 1274.21,227.99 1272.62,228.35 C1269.36,229.11 1260.70,230.28 1259.50,230.58 C1258.31,230.87 1251.07,233.00 1247.11,233.06 C1244.79,233.09 1236.11,235.30 1235.54,235.54 C1234.97,235.77 1233.29,236.47 1230.58,236.36 C1227.86,236.26 1227.10,236.39 1226.45,237.19 C1226.24,237.46 1225.69,238.01 1224.79,238.84 C1225.24,240.02 1230.40,239.53 1230.58,239.67 C1231.21,240.13 1231.50,241.04 1232.23,241.32 C1232.65,241.48 1257.40,241.32 1262.96,241.15 C1264.49,241.15 1272.40,243.05 1275.09,242.99 C1275.45,242.98 1366.82,243.23 1405.98,243.25 C1439.78,243.18 1510.65,242.91 1532.96,241.65 C1540.86,241.24 1547.16,241.51 1554.69,240.84 C1578.13,238.64 1593.73,237.87 1617.54,238.09 C1634.07,238.06 1676.23,234.73 1678.51,234.71 C1678.68,234.71 1684.98,234.80 1685.95,234.71 C1686.94,234.62 1695.03,232.88 1698.43,232.97 C1703.61,233.23 1713.49,231.40 1723.75,231.29 C1756.50,231.35 1792.56,231.40 1795.87,231.40 C1785.26,231.45 1777.28,231.19 1776.03,231.40 C1774.47,231.68 1769.49,233.16 1766.94,233.06" fill="none" stroke="rgb(183, 186, 219)" stroke-width="148.60" stroke-opacity="1.00" stroke-linejoin="round"/>
</g>
</svg>
