<?xml version="1.0" encoding="UTF-8" standalone="no"?>
<!DOCTYPE svg PUBLIC "-//W3C//DTD SVG 1.1//EN" "http://www.w3.org/Graphics/SVG/1.1/DTD/svg11.dtd">
<svg width="342.00" height="79.00" viewBox="0.00 0.00 342.00 79.00" xmlns="http://www.w3.org/2000/svg" xmlns:xlink="http://www.w3.org/1999/xlink">
<g stroke-linecap="round" transform="translate(-517.00, -183.00)" id="Layer_2">
<path d="M531.31,186.54 C529.20,198.85 524.96,226.92 522.82,242.68 C521.88,249.47 520.71,257.90 520.21,260.02" fill="none" stroke="rgb(52, 11, 45)" stroke-width="11.00" stroke-opacity="1.00" stroke-linejoin="round"/>
<path d="M532.01,199.77 C532.82,198.25 533.75,197.03 535.38,195.48 C537.84,193.16 542.70,190.07 545.37,189.90 C546.91,189.84 549.45,191.90 550.55,193.70 C551.21,194.85 552.76,200.66 552.92,203.94 C553.22,211.03 551.37,226.13 550.11,232.22 C549.39,235.63 545.86,248.29 545.01,251.27 C544.58,252.67 543.95,254.75 543.74,255.43" fill="none" stroke="rgb(52, 11, 45)" stroke-width="11.00" stroke-opacity="1.00" stroke-linejoin="round"/>
<path d="M552.87,203.28 C552.71,203.00 552.66,202.70 552.74,202.39 C553.43,199.71 558.50,194.43 561.56,192.59 C563.30,191.57 566.82,190.14 568.36,189.84 C569.73,189.61 572.30,189.98 573.39,190.57 C575.89,192.03 578.67,197.75 579.22,200.96 C580.47,208.41 580.05,216.79 578.59,228.63 C577.96,233.19 576.47,241.18 575.33,245.77 C573.84,251.57 573.71,252.02 573.67,251.96" fill="none" stroke="rgb(52, 11, 45)" stroke-width="11.00" stroke-opacity="1.00" stroke-linejoin="round"/>
<path d="M596.69,222.78 C597.25,226.08 596.86,232.36 596.56,234.96 C596.26,237.44 594.88,246.22 594.54,247.78" fill="none" stroke="rgb(52, 11, 45)" stroke-width="11.00" stroke-opacity="1.00" stroke-linejoin="round"/>
<path d="M609.25,209.68 C609.60,209.16 609.75,208.70 609.68,208.33 C609.55,207.63 609.10,206.71 608.34,205.58 C608.09,205.22 607.70,204.78 607.17,204.28" fill="none" stroke="rgb(52, 11, 45)" stroke-width="11.00" stroke-opacity="1.00" stroke-linejoin="round"/>
<path d="M634.01,224.44 C633.85,222.86 633.30,221.27 632.35,220.35 C631.30,219.37 628.63,218.60 627.09,218.79 C625.37,219.06 622.07,221.93 621.03,224.15 C620.09,226.24 619.29,230.47 619.40,232.79 C619.57,235.35 621.43,240.41 623.61,242.68 C625.70,244.79 630.86,246.21 632.97,246.07 C634.69,245.94 637.77,245.09 638.78,244.45 C639.44,244.02 640.64,242.89 641.78,241.74" fill="none" stroke="rgb(52, 11, 45)" stroke-width="11.00" stroke-opacity="1.00" stroke-linejoin="round"/>
<path d="M648.23,199.61 C648.23,199.96 648.23,200.33 648.23,200.71 C648.16,210.76 649.50,221.93 651.02,228.99 C653.10,238.15 654.43,242.52 654.86,243.78 C655.03,242.99 655.21,237.00 656.48,232.81 C657.38,229.99 658.32,227.62 659.20,226.23 C660.44,224.34 662.66,222.24 664.06,221.66 C665.41,221.17 668.03,221.16 669.37,221.68 C671.92,222.75 675.42,227.78 676.66,231.06 C677.65,233.77 678.74,240.37 678.58,242.47 C678.43,244.17 677.85,247.55 677.78,247.85" fill="none" stroke="rgb(52, 11, 45)" stroke-width="11.00" stroke-opacity="1.00" stroke-linejoin="round"/>
<path d="M692.65,234.74 C699.68,234.44 717.78,233.58 720.19,233.12 C721.00,232.95 722.04,232.32 722.47,231.84 C723.29,230.79 720.19,226.14 717.47,223.99 C714.61,221.81 709.58,219.79 706.99,219.63 C704.15,219.52 699.35,221.69 697.65,223.75 C696.17,225.60 694.65,230.76 694.73,233.33 C694.85,236.11 696.28,240.21 697.94,242.10 C699.53,243.85 703.10,245.85 705.53,246.59 C707.96,247.30 711.06,247.53 715.41,247.07 C719.58,246.61 724.70,245.38 726.58,244.96" fill="none" stroke="rgb(52, 11, 45)" stroke-width="11.00" stroke-opacity="1.00" stroke-linejoin="round"/>
<path d="M736.56,205.82 C736.13,209.40 738.64,224.61 739.98,232.25 C741.06,238.07 742.25,243.97 742.87,246.44" fill="none" stroke="rgb(52, 11, 45)" stroke-width="11.00" stroke-opacity="1.00" stroke-linejoin="round"/>
<path d="M756.29,201.14 C756.10,202.54 756.03,203.41 755.97,205.18 C755.83,210.19 757.28,226.11 757.96,233.46 C758.66,242.75 758.49,248.33 758.38,249.73" fill="none" stroke="rgb(52, 11, 45)" stroke-width="11.00" stroke-opacity="1.00" stroke-linejoin="round"/>
<path d="M770.85,231.90 C771.02,231.97 771.20,232.01 771.38,232.03 C774.70,232.49 794.50,232.42 798.95,231.59 C800.13,231.35 801.39,230.44 801.68,229.80 C802.12,228.56 800.24,224.69 798.26,222.61 C795.93,220.23 790.75,217.32 788.34,216.90 C786.47,216.62 783.62,216.70 782.08,217.12 C780.40,217.61 778.05,218.76 777.02,219.63 C774.79,221.61 772.45,226.63 772.05,229.58 C771.70,232.62 772.98,237.88 774.57,240.33 C776.00,242.47 779.46,245.73 781.33,246.73 C783.27,247.73 787.47,248.87 789.91,249.00 C795.40,249.24 803.16,247.44 803.82,247.20" fill="none" stroke="rgb(52, 11, 45)" stroke-width="11.00" stroke-opacity="1.00" stroke-linejoin="round"/>
<path d="M827.70,196.27 C827.54,197.31 827.14,199.94 826.89,201.52 C826.37,204.66 825.66,208.79 825.48,209.78" fill="none" stroke="rgb(52, 11, 45)" stroke-width="11.00" stroke-opacity="1.00" stroke-linejoin="round"/>
<path d="M853.96,221.37 C854.33,220.65 854.54,220.17 854.59,219.95 C854.69,219.47 853.95,217.89 853.43,217.41 C852.63,216.73 850.05,216.05 848.26,216.08 C845.13,216.17 839.66,218.74 838.18,220.49 C837.70,221.09 837.30,222.48 837.31,223.18 C837.39,223.93 838.63,225.68 839.84,226.60 C840.57,227.14 850.15,232.62 851.57,234.67 C852.43,235.99 853.11,238.88 852.77,240.11 C852.33,241.55 850.29,243.34 848.58,243.97 C846.96,244.52 842.16,244.29 839.66,243.49 C837.62,242.80 831.70,239.53 829.53,237.67 C828.36,236.65 827.64,235.56 827.27,234.49" fill="none" stroke="rgb(52, 11, 45)" stroke-width="11.00" stroke-opacity="1.00" stroke-linejoin="round"/>
</g>
</svg>
