<?xml version="1.0" encoding="UTF-8" standalone="no"?>
<!DOCTYPE svg PUBLIC "-//W3C//DTD SVG 1.1//EN" "http://www.w3.org/Graphics/SVG/1.1/DTD/svg11.dtd">
<svg width="294.00" height="71.00" viewBox="0.00 0.00 294.00 71.00" xmlns="http://www.w3.org/2000/svg" xmlns:xlink="http://www.w3.org/1999/xlink">
<g stroke-linecap="round" transform="translate(-271.00, -76.00)" id="Layer_3">
<path d="M280.39,88.44 C280.39,88.44 280.58,86.72 280.58,86.72 C280.38,89.80 281.82,101.39 282.87,112.79 C284.91,137.56 284.90,143.58 284.90,144.44" fill="none" stroke="rgb(108, 38, 131)" stroke-width="11.00" stroke-opacity="1.00" stroke-linejoin="round"/>
<path d="M274.58,88.97 C274.61,88.53 274.66,88.21 274.72,88.00 C275.39,86.14 279.80,82.74 282.29,81.79 C284.88,80.86 291.97,80.66 294.76,81.39 C297.11,82.05 301.83,84.66 303.32,86.05 C304.66,87.34 307.40,92.35 307.32,95.09 C307.20,97.68 303.72,101.77 301.70,102.87 C299.69,103.93 292.69,106.49 289.71,106.83 C288.32,106.97 281.97,107.18 280.80,107.22" fill="none" stroke="rgb(108, 38, 131)" stroke-width="11.00" stroke-opacity="1.00" stroke-linejoin="round"/>
<path d="M332.44,107.94 C332.30,107.74 332.08,107.64 331.77,107.65 C330.36,107.70 327.33,108.70 325.78,109.74 C322.98,111.66 320.11,117.21 319.29,120.57 C318.81,122.64 318.85,127.43 319.34,129.22 C319.94,131.28 322.60,135.38 323.95,136.53 C325.54,137.83 328.52,139.34 330.22,139.53 C331.83,139.69 334.19,139.29 335.71,138.71 C337.24,138.05 339.07,136.83 340.22,135.62 C341.32,134.40 342.80,131.27 343.19,129.39 C343.50,127.67 343.45,124.18 343.12,122.43 C342.72,120.59 341.36,117.52 340.26,116.12 C338.33,113.75 332.05,110.71 329.85,110.15 C327.26,109.52 322.27,109.67 319.90,110.71" fill="none" stroke="rgb(108, 38, 131)" stroke-width="11.00" stroke-opacity="1.00" stroke-linejoin="round"/>
<path d="M359.72,141.93 C360.48,140.22 359.48,123.16 359.98,119.35 C360.43,116.38 363.52,113.07 366.69,111.09 C368.60,109.95 371.82,109.06 376.07,108.20" fill="none" stroke="rgb(108, 38, 131)" stroke-width="11.00" stroke-opacity="1.00" stroke-linejoin="round"/>
<path d="M398.42,90.67 C398.42,90.67 398.48,89.04 398.48,89.04 C396.86,89.65 393.13,106.41 392.49,112.22 C391.68,119.83 392.15,127.49 393.32,130.27 C393.92,131.62 396.18,133.97 397.47,134.62 C399.10,135.39 401.94,135.98 403.90,135.96 C407.49,135.87 410.82,134.51 412.22,133.84" fill="none" stroke="rgb(108, 38, 131)" stroke-width="11.00" stroke-opacity="1.00" stroke-linejoin="round"/>
<path d="M450.03,96.11 C450.14,95.86 450.21,95.67 450.24,95.52 C450.48,93.94 447.65,90.26 445.12,88.27 C442.80,86.49 437.28,83.25 435.69,82.72 C433.57,82.07 430.94,82.20 429.89,83.10 C429.12,83.82 427.73,88.88 427.55,92.66 C427.30,98.43 430.53,131.58 431.05,135.08 C431.24,136.40 431.27,137.04 431.20,137.72" fill="none" stroke="rgb(108, 38, 131)" stroke-width="11.00" stroke-opacity="1.00" stroke-linejoin="round"/>
<path d="M459.44,108.78 C458.49,108.48 457.44,108.49 456.05,108.97 C454.48,109.55 451.56,111.51 450.64,112.83 C449.24,114.92 449.35,120.71 449.74,122.19 C450.33,124.26 453.25,128.72 455.03,130.34 C455.81,131.01 458.71,132.85 459.99,133.35 C461.72,133.99 465.52,134.20 467.08,133.74 C468.85,133.15 471.38,131.32 472.36,129.92 C473.29,128.51 474.04,125.37 474.00,123.29 C473.87,120.23 471.11,114.99 469.00,113.11 C466.83,111.31 462.45,109.74 458.92,109.47 C452.77,109.12 448.33,112.75 447.86,113.32" fill="none" stroke="rgb(108, 38, 131)" stroke-width="11.00" stroke-opacity="1.00" stroke-linejoin="round"/>
<path d="M488.17,91.90 C488.77,93.44 489.23,95.03 489.53,96.78 C489.93,99.18 489.74,115.54 489.63,123.79 C489.54,136.31 489.68,138.39 489.85,139.85" fill="none" stroke="rgb(108, 38, 131)" stroke-width="11.00" stroke-opacity="1.00" stroke-linejoin="round"/>
<path d="M510.29,109.19 C509.53,113.59 509.82,127.11 510.56,134.12 C510.60,134.54 510.71,135.37 510.87,136.60" fill="none" stroke="rgb(108, 38, 131)" stroke-width="11.00" stroke-opacity="1.00" stroke-linejoin="round"/>
<path d="M515.21,93.54 C515.38,92.68 515.41,92.13 515.31,91.88 C515.01,91.22 509.78,89.26 508.51,88.97" fill="none" stroke="rgb(108, 38, 131)" stroke-width="11.00" stroke-opacity="1.00" stroke-linejoin="round"/>
<path d="M542.94,106.39 C541.95,105.48 540.63,104.91 538.98,104.95 C535.72,105.05 530.19,107.88 529.04,109.43 C527.17,112.05 525.99,117.29 525.90,118.75 C525.80,120.77 526.42,124.75 527.22,127.12 C528.21,129.82 531.82,134.19 534.56,135.77 C537.21,137.18 542.34,137.88 545.73,137.12 C549.20,136.25 553.65,133.83 556.21,131.40 C558.11,129.55 559.99,124.97 559.80,122.58 C559.60,120.52 556.90,115.02 555.53,113.47 C554.01,111.79 549.46,108.64 547.03,107.72 C540.41,105.34 536.34,107.44 535.39,108.21" fill="none" stroke="rgb(108, 38, 131)" stroke-width="11.00" stroke-opacity="1.00" stroke-linejoin="round"/>
<path d="M386.53,113.67 C386.44,113.74 387.00,113.71 389.42,113.48 C397.72,112.71 407.34,111.82 408.67,111.70 C408.72,111.70 408.86,111.68 408.81,111.68" fill="none" stroke="rgb(108, 38, 131)" stroke-width="11.00" stroke-opacity="1.00" stroke-linejoin="round"/>
<path d="M418.07,112.01 C418.42,112.01 418.72,111.99 418.95,111.97 C420.26,111.84 434.00,109.82 434.65,109.74 C435.50,109.63 436.36,109.52 437.21,109.42" fill="none" stroke="rgb(108, 38, 131)" stroke-width="11.00" stroke-opacity="1.00" stroke-linejoin="round"/>
</g>
</svg>
