<?xml version="1.0" encoding="UTF-8" standalone="no"?>
<!DOCTYPE svg PUBLIC "-//W3C//DTD SVG 1.1//EN" "http://www.w3.org/Graphics/SVG/1.1/DTD/svg11.dtd">
<svg width="382.00" height="74.00" viewBox="0.00 0.00 382.00 74.00" xmlns="http://www.w3.org/2000/svg" xmlns:xlink="http://www.w3.org/1999/xlink">
<g stroke-linecap="round" transform="translate(-14.00, -30.00)" id="Layer_8">
<path d="M324.68,65.02 C324.90,65.01 325.18,65.01 325.52,65.05 C336.12,66.15 383.06,64.79 385.94,64.67 C387.37,64.60 388.37,64.52 390.36,64.33" fill="none" stroke="rgb(75, 170, 176)" stroke-width="9.80" stroke-opacity="1.00" stroke-linejoin="round"/>
<path d="M369.97,34.24 C369.97,34.24 368.46,34.99 368.46,34.99 C368.25,35.81 369.02,36.93 372.55,41.36 C377.98,48.15 391.40,64.74 391.67,65.23 C391.63,65.82 382.03,77.41 377.11,83.69 C371.00,91.74 366.06,99.44 365.53,100.68 C365.45,100.87 365.35,101.20 365.22,101.66" fill="none" stroke="rgb(75, 170, 176)" stroke-width="9.80" stroke-opacity="1.00" stroke-linejoin="round"/>
<path d="M85.32,64.02 C85.10,64.01 84.82,64.01 84.48,64.05 C73.88,65.15 26.94,63.79 24.06,63.67 C22.63,63.60 21.63,63.52 19.64,63.33" fill="none" stroke="rgb(75, 170, 176)" stroke-width="9.80" stroke-opacity="1.00" stroke-linejoin="round"/>
<path d="M40.03,33.24 C40.03,33.24 41.54,33.99 41.54,33.99 C41.75,34.81 40.98,35.93 37.45,40.36 C32.02,47.15 18.60,63.74 18.33,64.23 C18.37,64.82 27.97,76.41 32.89,82.69 C39.00,90.74 43.94,98.44 44.47,99.68 C44.55,99.87 44.65,100.20 44.78,100.66" fill="none" stroke="rgb(75, 170, 176)" stroke-width="9.80" stroke-opacity="1.00" stroke-linejoin="round"/>
<path d="M129.19,45.53 C128.05,44.81 124.16,44.70 122.36,45.30 C120.28,46.04 116.91,47.97 115.31,49.43 C112.53,52.04 110.16,56.49 110.31,58.48 C110.50,60.11 113.13,61.73 115.78,62.36 C117.77,62.83 123.85,64.63 125.33,65.45 C127.36,66.63 129.11,70.29 128.67,72.43 C128.17,74.56 124.82,78.60 122.06,79.93 C119.54,81.09 113.96,81.49 111.29,80.71 C101.92,77.67 103.21,72.06 103.34,72.05" fill="none" stroke="rgb(75, 170, 176)" stroke-width="8.60" stroke-opacity="1.00" stroke-linejoin="round"/>
<path d="M140.43,52.13 C140.43,52.13 140.32,51.16 140.32,51.16 C138.71,55.09 138.58,66.72 139.45,70.23 C140.15,72.94 142.37,77.33 144.19,78.39 C145.16,78.90 147.12,78.74 148.24,78.09 C151.07,76.32 154.60,67.79 155.41,66.14 C156.20,66.36 159.39,72.33 161.17,74.11 C161.97,74.86 163.96,76.27 164.75,76.53 C165.95,76.89 167.92,76.73 168.92,76.18 C170.78,75.08 173.64,70.25 174.45,67.19 C175.11,64.55 175.60,59.25 175.35,56.87 C174.90,52.94 174.11,51.45 173.81,51.15" fill="none" stroke="rgb(75, 170, 176)" stroke-width="8.60" stroke-opacity="1.00" stroke-linejoin="round"/>
<path d="M186.66,56.67 C186.64,57.58 185.00,75.92 184.38,84.87 C184.19,88.15 183.89,93.43 183.78,95.42" fill="none" stroke="rgb(75, 170, 176)" stroke-width="8.60" stroke-opacity="1.00" stroke-linejoin="round"/>
<path d="M188.73,44.01 C188.74,44.01 188.72,44.03 188.71,44.03 C187.86,44.28 187.01,44.52 186.16,44.77 C185.83,44.87 185.56,44.96 185.34,45.05" fill="none" stroke="rgb(75, 170, 176)" stroke-width="8.60" stroke-opacity="1.00" stroke-linejoin="round"/>
<path d="M199.56,50.33 C199.78,50.43 200.14,82.63 200.26,89.26 C200.31,91.40 200.38,94.60 200.41,95.67" fill="none" stroke="rgb(75, 170, 176)" stroke-width="8.60" stroke-opacity="1.00" stroke-linejoin="round"/>
<path d="M196.58,55.93 C196.09,55.31 195.85,54.16 196.22,52.97 C196.75,51.39 198.94,48.89 200.82,47.75 C203.05,46.45 208.72,46.29 210.98,47.07 C213.90,48.14 217.26,51.25 218.00,53.55 C218.66,55.74 218.01,60.29 216.80,62.04 C215.63,63.68 212.31,65.73 209.76,66.51 C206.94,67.33 202.98,67.17 199.82,66.55 C199.54,66.50 199.10,66.39 198.52,66.24" fill="none" stroke="rgb(75, 170, 176)" stroke-width="8.60" stroke-opacity="1.00" stroke-linejoin="round"/>
<path d="M231.46,61.37 C230.14,60.76 229.36,60.39 229.11,60.27 C229.03,60.23 228.81,60.09 228.90,60.09 C232.59,60.69 237.84,60.29 241.49,59.39 C245.07,58.47 249.31,56.45 249.88,55.18 C250.15,54.49 249.89,52.99 249.39,52.34 C248.35,51.10 243.34,49.52 240.71,49.63 C237.74,49.80 232.57,52.00 230.79,53.86 C229.08,55.73 227.43,60.40 227.36,63.11 C227.34,65.73 228.82,70.00 230.33,71.65 C231.77,73.14 237.01,75.75 240.28,76.28 C241.96,76.54 247.24,76.45 247.57,76.49" fill="none" stroke="rgb(75, 170, 176)" stroke-width="8.60" stroke-opacity="1.00" stroke-linejoin="round"/>
<path d="M271.44,52.43 C271.44,52.43 270.49,53.63 270.49,53.63 C270.49,53.63 271.96,55.13 271.96,55.13 C271.96,55.13 272.98,55.02 272.98,55.02 C272.98,55.02 272.57,52.93 272.57,52.93" fill="none" stroke="rgb(75, 170, 176)" stroke-width="8.60" stroke-opacity="1.00" stroke-linejoin="round"/>
<path d="M287.84,56.34 C287.84,56.34 288.07,57.33 288.07,57.33 C288.07,57.33 289.28,57.70 289.28,57.70" fill="none" stroke="rgb(75, 170, 176)" stroke-width="8.60" stroke-opacity="1.00" stroke-linejoin="round"/>
<path d="M264.97,65.64 C265.29,65.84 265.55,66.34 265.76,67.53 C266.42,71.13 268.52,74.86 269.79,76.01 C271.93,77.90 275.98,79.30 278.67,79.35 C281.34,79.36 286.14,78.43 288.50,77.12 C290.46,76.01 291.11,75.28 291.34,74.97" fill="none" stroke="rgb(75, 170, 176)" stroke-width="8.60" stroke-opacity="1.00" stroke-linejoin="round"/>
</g>
</svg>
